<svg id="Layer_1" data-name="Layer 1" xmlns="http://www.w3.org/2000/svg" viewBox="0 0 960 627"><defs><style>.cls-1,.cls-2{fill:#0082c4;}.cls-1,.cls-3{fill-rule:evenodd;}.cls-3,.cls-4{fill:#2d2a26;}</style></defs><title>logo-thompsonpowerservices-color</title><g id="Thompson_Power_Services" data-name="Thompson Power Services"><path class="cls-1" d="M270.4,40.66c17.82,32.6,28,78.21,13,115.81-5.41,11.4-10.22,24.8-22.64,31.6-1-.6-1-1.6-1.4-2.4,10.22-37.8,11.62-85.21-10.61-118-13-20.4-32.25-42.2-54.28-52-44.47-24-110.57-20-151,9.2,32.64-17.8,79.31-25.4,115.36-10,10.42,5.4,23.64,8.6,29.45,21a3.62,3.62,0,0,1-3,1.4c-15.22-3-30.24-7.6-47.06-7.2a133.53,133.53,0,0,0-124.39,76C-10,154.07-2,221.07,30,262.48c-.4-2.2-1-4.6-2.8-5.8-13.42-23.2-21.63-48.61-21.63-77.21,1.8-27.2,8.61-52.8,29.84-71a5.46,5.46,0,0,1,1.8,2.4c-2.4,13.8-7,26.8-7.21,41.6-2.6,52.8,22.24,100.21,68.3,126.81,45.87,27.8,116.38,21.6,158.24-9.6-24.24,12.6-50.28,21-79.92,20.6-26-1.8-50.67-8.8-68.3-29.2,1-1.4,2.6-1.6,4-2,16.82,3.8,33.65,8.4,52.87,7.2,48.88,0,93.94-28.8,116.78-72.41C306.05,148.47,300.44,81.06,270.4,40.66ZM180.46,241.28c28.45,6.6,54.09-5,74.52-23.4a117.47,117.47,0,0,1-124,32.6c-33.05-8.6-55.88-42.21-70.7-70.61-1.2-.8-3.21-.2-4.81-.4-6.41,15.2-.8,32.6,4.41,46.4,5.2,10.61,11.22,20.61,19.63,29.81C46.07,224.27,30,178.07,44.46,132.87c8.62-27.21,33.46-54.61,60.7-64.81,3.8-4,10.61-4.2,12.41-10-5-7.4-14.42-4-22-4.8-20.63,1.8-37.86,11.6-53.48,25.4,31.25-32.8,77.32-47.6,121.58-33.6,23,6.4,44.67,24.8,57.69,46,5.61,8.4,10.21,17.41,16.42,25,3.61.6,4.81-4,5.81-6.8,1.2-25.41-8-46.61-23.64-65.21,33.45,31,47.27,82.41,29.85,126.21-10.62,29.4-40.86,52.6-68.3,64.41C180.46,236.68,178.26,239.28,180.46,241.28Z" transform="translate(0 0)"/><path class="cls-1" d="M244,163.07c-7.21,11.6-18.23,25.4-32.25,27.8a4,4,0,0,1-5.21-3.8c7-16.4,13.83-33,14.83-51.8,1-34-21.23-65.41-51.88-79.21,10.61,7.2,21.63,18.4,22.63,31.6-1,1.61-2.4,3.61-4.4,3.4-19.83-9.6-40.86-17.2-65.3-14.4-30.64,2.2-61.49,29.4-69.3,57.61,5.21-11.8,17.83-24.61,31.24-25.4,2.81.79,2.21,4.59,1.61,6.8-11.42,23-16.43,55.6-4.41,80,9.21,23.41,34.25,44,57.28,50-12-6.61-28.84-17-28.84-32.6,0-3,3-2.41,5.21-2.41,16.22,7.21,33.25,12.41,52.88,11.4C201.3,220.48,233.75,194.47,244,163.07Z" transform="translate(0 0)"/><path class="cls-2" d="M493,626.07V615h5.89v1.07a5.28,5.28,0,0,0,2.54,3.73,9.4,9.4,0,0,0,5.29,1.47,10.36,10.36,0,0,0,5.1-1.07,3.29,3.29,0,0,0,1.9-3,2.88,2.88,0,0,0-1.57-2.7,22.44,22.44,0,0,0-6.26-1.59q-6.93-1.16-9.89-3.65a8.19,8.19,0,0,1-3-6.52A8.5,8.5,0,0,1,496.2,596a12.74,12.74,0,0,1,8.49-2.72,17,17,0,0,1,8.19,1.87v-1.37h5.86v10.69h-5.86v-2a8.78,8.78,0,0,0-7.77-4,7.73,7.73,0,0,0-4.27,1.08,3.28,3.28,0,0,0-1.68,2.89,2.5,2.5,0,0,0,1.54,2.51,32.33,32.33,0,0,0,6.63,1.44,36.31,36.31,0,0,1,7.38,1.72,9.14,9.14,0,0,1,4.14,3.26,8.87,8.87,0,0,1,1.65,5.32,8.44,8.44,0,0,1-3.58,7.14,15.33,15.33,0,0,1-9.31,2.65,15.16,15.16,0,0,1-8.77-2.33v1.8Zm-12.33-19.13a11.38,11.38,0,0,0-3.68-6.13,10.35,10.35,0,0,0-7.31-2.75,9.9,9.9,0,0,0-6.76,2.47,10.47,10.47,0,0,0-3.43,6.41Zm6.79,4.61H459.2a11.56,11.56,0,0,0,3.67,7.22,11.13,11.13,0,0,0,7.8,2.77,13,13,0,0,0,10.92-5.33l5.82,2.47A17.24,17.24,0,0,1,480,625a22.81,22.81,0,0,1-9.5,2,19.7,19.7,0,0,1-13.16-4.62q-5.44-4.61-5.45-12.43a15.72,15.72,0,0,1,5.32-12.23,17.73,17.73,0,0,1,12.21-4.79,18.4,18.4,0,0,1,12.26,4.68C485.36,600.72,487.27,605.38,487.41,611.55Zm-40.73-17.73V606h-5.89a7.53,7.53,0,0,0-3-5.35,9.44,9.44,0,0,0-5.84-1.87,9.34,9.34,0,0,0-7.21,3,11.27,11.27,0,0,0-2.78,7.92,13,13,0,0,0,2.64,8,9,9,0,0,0,7.63,3.47,10.47,10.47,0,0,0,10-6.31l5.45,2.45Q443.25,627,432,627q-8,0-12.55-5.23a17.78,17.78,0,0,1-4.57-12,15.94,15.94,0,0,1,5-12.05,16.2,16.2,0,0,1,11.5-4.74,14.33,14.33,0,0,1,9.43,3.16v-2.27Zm-47.51,26.62v-21h-5.24v-5.63h11.82v26.62h5.16v5.63h-17v-5.63Zm-.94-37.58a3.62,3.62,0,0,1,1.13-2.66,3.82,3.82,0,0,1,2.86-1.13,3.94,3.94,0,0,1,2.8,1.1,3.55,3.55,0,0,1,1.17,2.69,3.61,3.61,0,0,1-1.17,2.72,4,4,0,0,1-2.8,1.11,3.88,3.88,0,0,1-2.83-1.13A3.6,3.6,0,0,1,398.23,582.86ZM369.91,626.6l-11-27.15H353v-5.63h16.88v5.63h-4.36l7.2,18.3,7.25-18.3h-4.65v-5.63h16.4v5.63h-5.17L375.87,626.6Zm-39.1-6.16v-21h-6.75v-5.63h12v7.27a12.78,12.78,0,0,1,3.08-4.7,9.78,9.78,0,0,1,4.18-2.46,23.84,23.84,0,0,1,6-.61h1.73v6.4h-1.31a21.84,21.84,0,0,0-7.52,1,6.59,6.59,0,0,0-3.66,3.51c-.81,1.7-1.2,4.74-1.2,9.14v7.1h7.31v5.63H324.06v-5.63Zm-17.73-13.5a11.38,11.38,0,0,0-3.68-6.13,10.35,10.35,0,0,0-7.31-2.75,9.9,9.9,0,0,0-6.76,2.47,10.43,10.43,0,0,0-3.43,6.41Zm6.79,4.61H291.65a11.62,11.62,0,0,0,3.68,7.22,11.11,11.11,0,0,0,7.8,2.77,13,13,0,0,0,10.92-5.33l5.82,2.47a17.24,17.24,0,0,1-7.38,6.27,22.81,22.81,0,0,1-9.5,2,19.68,19.68,0,0,1-13.16-4.62q-5.44-4.61-5.45-12.43a15.72,15.72,0,0,1,5.32-12.23,17.73,17.73,0,0,1,12.21-4.79,18.4,18.4,0,0,1,12.26,4.68C317.82,600.72,319.73,605.38,319.87,611.55Zm-73.28,14.52V609.24h6v4.1Q257,620.9,264,620.9a9,9,0,0,0,6-2.1,6.9,6.9,0,0,0,2.46-5.49c0-2.19-.67-3.78-2-4.75s-3.88-1.92-7.59-2.88a56.53,56.53,0,0,1-9.6-3.15,12.24,12.24,0,0,1-5-4.23,11.4,11.4,0,0,1-1.86-6.51,11.68,11.68,0,0,1,4.05-9.31A15,15,0,0,1,260.6,579a17.91,17.91,0,0,1,10.74,3.6v-3.1h5.89v14.06h-5.89v-3.24A11.76,11.76,0,0,0,261.12,585a9.27,9.27,0,0,0-6.07,1.75,5.31,5.31,0,0,0-1,7.46,6.45,6.45,0,0,0,2.73,2.08,59.27,59.27,0,0,0,6.56,1.86,53.2,53.2,0,0,1,9.25,3,12.33,12.33,0,0,1,4.95,4.62,13.34,13.34,0,0,1,2.09,7.42,12.48,12.48,0,0,1-4.36,9.8,15.61,15.61,0,0,1-10.75,3.85,17.66,17.66,0,0,1-11.86-4.55v3.83Zm-41.49-5.63v-21h-6.75v-5.63h12v7.27a12.78,12.78,0,0,1,3.08-4.7,9.78,9.78,0,0,1,4.18-2.46,23.84,23.84,0,0,1,6-.61h1.73v6.4h-1.31a21.84,21.84,0,0,0-7.52,1,6.59,6.59,0,0,0-3.66,3.51c-.81,1.7-1.2,4.74-1.2,9.14v7.1H219v5.63H198.35v-5.63Zm-17.73-13.5a11.38,11.38,0,0,0-3.68-6.13,10.35,10.35,0,0,0-7.31-2.75,9.9,9.9,0,0,0-6.76,2.47,10.47,10.47,0,0,0-3.43,6.41Zm6.79,4.61H165.94a11.62,11.62,0,0,0,3.68,7.22,11.13,11.13,0,0,0,7.8,2.77,13,13,0,0,0,10.92-5.33l5.82,2.47a17.24,17.24,0,0,1-7.38,6.27,22.81,22.81,0,0,1-9.5,2,19.68,19.68,0,0,1-13.16-4.62q-5.44-4.61-5.45-12.43A15.72,15.72,0,0,1,164,597.72a17.73,17.73,0,0,1,12.21-4.79,18.4,18.4,0,0,1,12.26,4.68C192.11,600.72,194,605.38,194.16,611.55ZM116.1,626.6l-9-27.15H103v-5.63h14.15v5.63h-4.41l6.41,19.45,6.41-19.45h-3.67v-5.63h16.22v5.63h-3.68l6.41,19.45,6.45-19.45h-4.6v-5.63h15.15v5.63h-4.82l-9,27.15h-6.19l-7.71-23.32L122.3,626.6ZM75.31,610a10.49,10.49,0,0,0,3.11,7.81,10.94,10.94,0,0,0,15.18,0A10.56,10.56,0,0,0,96.67,610,10.57,10.57,0,0,0,86,599.09a10.18,10.18,0,0,0-7.67,3.13A10.72,10.72,0,0,0,75.31,610Zm-7,0a16,16,0,0,1,5.12-12.25,18.79,18.79,0,0,1,25-.06,17.21,17.21,0,0,1,0,24.63A17.82,17.82,0,0,1,86,627a17.58,17.58,0,0,1-12.57-4.8A16.11,16.11,0,0,1,68.36,610Zm-26.52-7.2H46q7.1,0,9.84-1.94c1.82-1.3,2.73-3.6,2.73-6.88a8.82,8.82,0,0,0-1.45-5.2,6.47,6.47,0,0,0-3.61-2.64,32.23,32.23,0,0,0-7.17-.55H41.84Zm-7.27,17.52V585.54H28.5v-5.8H45.72a46.24,46.24,0,0,1,11.37,1,11.24,11.24,0,0,1,6.33,4.68A14.73,14.73,0,0,1,66,594.06a14.9,14.9,0,0,1-1.68,7.11,11.7,11.7,0,0,1-4.17,4.65,15.38,15.38,0,0,1-5.57,2,63,63,0,0,1-9.38.51H41.84v11.93h6.24v5.8H28.5v-5.8Z" transform="translate(0 0)"/><path class="cls-2" d="M493,626.07V615h5.89v1.07a5.28,5.28,0,0,0,2.54,3.73,9.4,9.4,0,0,0,5.29,1.47,10.36,10.36,0,0,0,5.1-1.07,3.29,3.29,0,0,0,1.9-3,2.88,2.88,0,0,0-1.57-2.7,22.44,22.44,0,0,0-6.26-1.59q-6.93-1.16-9.89-3.65a8.19,8.19,0,0,1-3-6.52A8.5,8.5,0,0,1,496.2,596a12.74,12.74,0,0,1,8.49-2.72,17,17,0,0,1,8.19,1.87v-1.37h5.86v10.69h-5.86v-2a8.78,8.78,0,0,0-7.77-4,7.73,7.73,0,0,0-4.27,1.08,3.28,3.28,0,0,0-1.68,2.89,2.5,2.5,0,0,0,1.54,2.51,32.33,32.33,0,0,0,6.63,1.44,36.31,36.31,0,0,1,7.38,1.72,9.14,9.14,0,0,1,4.14,3.26,8.85,8.85,0,0,1,1.65,5.32,8.44,8.44,0,0,1-3.58,7.14,15.33,15.33,0,0,1-9.31,2.65,15.16,15.16,0,0,1-8.77-2.33v1.8Zm-12.33-19.13a11.35,11.35,0,0,0-3.68-6.13,10.35,10.35,0,0,0-7.31-2.75,9.9,9.9,0,0,0-6.76,2.47,10.47,10.47,0,0,0-3.43,6.41Zm6.79,4.61H459.2a11.56,11.56,0,0,0,3.67,7.22,11.13,11.13,0,0,0,7.8,2.77,13,13,0,0,0,10.92-5.33l5.82,2.47A17.24,17.24,0,0,1,480,625a22.81,22.81,0,0,1-9.5,2,19.7,19.7,0,0,1-13.16-4.62q-5.44-4.61-5.45-12.43a15.72,15.72,0,0,1,5.32-12.23,17.73,17.73,0,0,1,12.21-4.79,18.4,18.4,0,0,1,12.26,4.68C485.36,600.72,487.27,605.38,487.41,611.55Zm-40.73-17.73V606h-5.89a7.53,7.53,0,0,0-3-5.35,9.44,9.44,0,0,0-5.84-1.87,9.34,9.34,0,0,0-7.21,3,11.25,11.25,0,0,0-2.78,7.92,13,13,0,0,0,2.64,8,9,9,0,0,0,7.63,3.47,10.46,10.46,0,0,0,10-6.32l5.45,2.46Q443.25,627,432,627q-8,0-12.54-5.23a17.74,17.74,0,0,1-4.58-12,15.94,15.94,0,0,1,5-12.05,16.2,16.2,0,0,1,11.5-4.74,14.33,14.33,0,0,1,9.43,3.16v-2.27Zm-47.51,26.62v-21h-5.24v-5.63h11.82v26.62h5.16v5.63h-17v-5.63Zm-.94-37.58a3.62,3.62,0,0,1,1.13-2.66,3.82,3.82,0,0,1,2.86-1.13,3.94,3.94,0,0,1,2.8,1.1,3.55,3.55,0,0,1,1.17,2.69,3.61,3.61,0,0,1-1.17,2.72,4,4,0,0,1-2.8,1.11,3.88,3.88,0,0,1-2.83-1.13A3.6,3.6,0,0,1,398.23,582.86ZM369.91,626.6l-11-27.15H353v-5.63h16.88v5.63h-4.36l7.2,18.3,7.25-18.3h-4.65v-5.63h16.4v5.63h-5.17L375.87,626.6Zm-39.1-6.16v-21h-6.75v-5.63h12v7.27a12.78,12.78,0,0,1,3.08-4.7,9.78,9.78,0,0,1,4.18-2.46,23.84,23.84,0,0,1,6-.61h1.73v6.4h-1.31a21.84,21.84,0,0,0-7.52,1,6.59,6.59,0,0,0-3.66,3.51c-.81,1.7-1.2,4.74-1.2,9.14v7.1h7.31v5.63H324.06v-5.63Zm-17.73-13.5a11.35,11.35,0,0,0-3.68-6.13,10.35,10.35,0,0,0-7.31-2.75,9.9,9.9,0,0,0-6.76,2.47,10.43,10.43,0,0,0-3.43,6.41Zm6.79,4.61H291.65a11.62,11.62,0,0,0,3.68,7.22,11.11,11.11,0,0,0,7.8,2.77,13,13,0,0,0,10.92-5.33l5.82,2.47a17.24,17.24,0,0,1-7.38,6.27,22.81,22.81,0,0,1-9.5,2,19.68,19.68,0,0,1-13.16-4.62q-5.44-4.61-5.45-12.43a15.72,15.72,0,0,1,5.32-12.23,17.73,17.73,0,0,1,12.21-4.79,18.4,18.4,0,0,1,12.26,4.68C317.82,600.72,319.73,605.38,319.87,611.55Zm-73.28,14.52V609.24h6v4.1Q257,620.9,264,620.9a9,9,0,0,0,6-2.1,6.9,6.9,0,0,0,2.46-5.49c0-2.19-.67-3.78-2-4.75s-3.88-1.92-7.59-2.88a56.53,56.53,0,0,1-9.6-3.15,12.24,12.24,0,0,1-5-4.23,11.4,11.4,0,0,1-1.86-6.51,11.68,11.68,0,0,1,4.05-9.31A15,15,0,0,1,260.6,579a17.91,17.91,0,0,1,10.74,3.6v-3.1h5.89v14.06h-5.89v-3.24A11.76,11.76,0,0,0,261.12,585a9.27,9.27,0,0,0-6.07,1.75,5.31,5.31,0,0,0-1,7.46,6.45,6.45,0,0,0,2.73,2.08,59.27,59.27,0,0,0,6.56,1.86,53.2,53.2,0,0,1,9.25,3,12.33,12.33,0,0,1,4.95,4.62,13.34,13.34,0,0,1,2.09,7.42,12.48,12.48,0,0,1-4.36,9.8,15.6,15.6,0,0,1-10.75,3.85,17.66,17.66,0,0,1-11.86-4.55v3.83Zm-41.49-5.63v-21h-6.75v-5.63h12v7.27a12.78,12.78,0,0,1,3.08-4.7,9.78,9.78,0,0,1,4.18-2.46,23.84,23.84,0,0,1,6-.61h1.73v6.4h-1.31a21.84,21.84,0,0,0-7.52,1,6.59,6.59,0,0,0-3.66,3.51c-.81,1.7-1.2,4.74-1.2,9.14v7.1H219v5.63H198.35v-5.63Zm-17.73-13.5a11.35,11.35,0,0,0-3.68-6.13,10.35,10.35,0,0,0-7.31-2.75,9.9,9.9,0,0,0-6.76,2.47,10.47,10.47,0,0,0-3.43,6.41Zm6.79,4.61H165.94a11.62,11.62,0,0,0,3.68,7.22,11.13,11.13,0,0,0,7.8,2.77,13,13,0,0,0,10.92-5.33l5.82,2.47a17.24,17.24,0,0,1-7.38,6.27,22.81,22.81,0,0,1-9.5,2,19.68,19.68,0,0,1-13.16-4.62q-5.44-4.61-5.45-12.43A15.72,15.72,0,0,1,164,597.72a17.73,17.73,0,0,1,12.21-4.79,18.4,18.4,0,0,1,12.26,4.68C192.11,600.72,194,605.38,194.16,611.55ZM116.1,626.6l-9-27.15H103v-5.63h14.15v5.63h-4.41l6.41,19.45,6.41-19.45h-3.67v-5.63h16.22v5.63h-3.68l6.41,19.45,6.45-19.45h-4.6v-5.63h15.15v5.63h-4.82l-9,27.15h-6.19l-7.71-23.32L122.3,626.6ZM75.31,610a10.49,10.49,0,0,0,3.11,7.81,10.94,10.94,0,0,0,15.18,0A10.56,10.56,0,0,0,96.67,610,10.57,10.57,0,0,0,86,599.09a10.18,10.18,0,0,0-7.67,3.13A10.72,10.72,0,0,0,75.31,610Zm-7,0a16,16,0,0,1,5.12-12.25,18.79,18.79,0,0,1,25-.06,17.21,17.21,0,0,1,0,24.63A17.82,17.82,0,0,1,86,627a17.58,17.58,0,0,1-12.57-4.8A16.11,16.11,0,0,1,68.36,610Zm-26.52-7.2H46q7.1,0,9.84-1.94c1.82-1.3,2.73-3.6,2.73-6.88a8.82,8.82,0,0,0-1.45-5.2,6.47,6.47,0,0,0-3.61-2.64,32.23,32.23,0,0,0-7.17-.55H41.84Zm-7.27,17.52V585.54H28.5v-5.8H45.72a46.24,46.24,0,0,1,11.37,1,11.24,11.24,0,0,1,6.33,4.68A14.73,14.73,0,0,1,66,594.06a14.9,14.9,0,0,1-1.68,7.11,11.7,11.7,0,0,1-4.17,4.65,15.38,15.38,0,0,1-5.57,2,63,63,0,0,1-9.38.51H41.84v11.93h6.24v5.8H28.5v-5.8Z" transform="translate(0 0)"/><path class="cls-3" d="M172.13,387c1,20.49,0,41.78,1,62.26,10.79-9.84,27.19-14.06,40.78-8.23,27,13.85,18.59,47.59,20.19,74.71v25.5l12,.41.4,26.51H196.12l-.4-93a10.86,10.86,0,0,0-6.2-7.63c-6.2-1-12.79,1-16.79,5.82v67.88l10.59.41.4,27.11H121.35V542.25c4.2-1,9-.41,13.4-.6V413.91h-7.2l-.4,39.57-26.39.6-.6-39.57-14.79-.6V541.65h14l.4,26.51-72,.6-.4-26.51c4.4-1,9.6-.41,14.39-.6V413.91h-15l-.4,40.17H0V387Z" transform="translate(0 0)"/><path class="cls-3" d="M459,456.89c12.59-12.45,29.59-22.49,47.18-14.06,13.19,6.83,17.59,21.49,19.19,35.35v63.06c4.2,1,8.8.41,13.4.41v27.11H488.4l-1-90.18c-1-3.81-3.2-7.83-7.2-9.64-6-1.2-11.79,1.21-15.79,6.23v66.07l10.59,1v25.91l-48,.6-.6-88.77c-1.4-4-2.2-9.24-7.19-11.05-6.2-1.4-11.8,2-16.2,6.23v66.07l10.6,1v26.51H353.05V541.65h12l.6-72.31-12-.4-.6-26.51h50c.2,4.42-.4,9,.4,13.06,9-12.25,22.59-18.08,37.39-14.46,7.59,1.8,14.39,9.24,18.19,15.86" transform="translate(0 0)"/><path class="cls-3" d="M696.11,450.06l.4-8H722.9c1,10.44.4,21.49.6,32.13l-27,.61c-1-5-2-10.85-7.6-13.06-3.39-1.4-7,.2-9.59,2.41-2.8,3.42-2.6,8.24-1,12.05,15.19,17.48,46.18,25.71,47.58,52.62,1.2,13.66-.6,27.32-11.6,36.55-7.39,6.43-19.39,6.23-28.78,3.82-3.8-1.41-6.8-5.42-9.6-8.64l-1,8.24H648.53V534.42h26.39c.6,5.42,2.2,11.24,7.79,13.65,3.21.81,7.2.6,9.6-2,2.6-2.82,3-7.64,1.4-11.05-11.59-15.67-32.39-20.89-42.18-39.16-6.6-11.05-6-28.12-1-40,3.6-8.44,12.4-14.66,21.19-15.87,10-1.41,18.19,3.42,24.39,10" transform="translate(0 0)"/><path class="cls-3" d="M942.21,456.49l4.4,13.46.4,71.3c3.79,1,8.39.4,12.59.4l.4,26.51H909.62l-.4-91.59c-1.4-2.8-3-6.42-6.4-7.63-6.39-1.4-12.19,1.61-16.79,6.23v66.07l10.6.41.59,26.51-62,.6-.4-26.51c4.2-1,8.8-.41,13.4-.6l.4-72.31c-4.2-.8-8.8-.2-13.4-.4l-.4-26.51H886c.2,4.42-.4,9,.6,13.06,7.8-12.86,22.79-17.68,37.39-14.46,7.39,2,14.59,8.43,18.19,15.46" transform="translate(0 0)"/><path class="cls-4" d="M335.86,454.88c-8-8.23-17-13.65-27.39-15.86-16.59-2-32.19,1.4-43.58,13.45-22.19,22.7-23.19,60.66-12,88.77,7.2,17.88,25.79,31.13,45,31.33,19.59.61,37.38-11.44,46.18-28.92C356.45,516.74,355.05,478.18,335.86,454.88Zm-24.59,72.31c-1.4,5.82-2.8,12.45-8.59,15.46a10.64,10.64,0,0,1-11-2.81c-8.8-14.46-5.8-34.55-5.8-52,1.8-7.63,2.6-17.87,11.6-20.28,3.6-1,6,1.2,8.59,2.81C315.07,486.41,313.27,508.51,311.27,527.19Z" transform="translate(0 0)"/><path class="cls-4" d="M827.65,471c-3.59-9.44-11.19-18.07-19.78-24.7-13.2-9-33.39-10.64-48-3.41-29.59,15.46-34.79,49.6-30.59,80.53,3,19.48,16.39,40.77,36.38,46.8a48.41,48.41,0,0,0,50.38-12.46C836.45,535,838.05,498.67,827.65,471ZM791.07,535c-1.6,3.21-4,7.63-8.2,8.23-4.59.61-9.19-1.4-11-5.82-6.2-19.68-6.8-45.79.6-65.07,1.8-2,4.2-4.62,7.2-4.82,5.19-.81,10,3.61,11.39,8.23C796.07,493.44,796.07,517.34,791.07,535Z" transform="translate(0 0)"/><path class="cls-4" d="M634.74,454.48c-6.4-11.24-17.6-15.06-29.79-14.46-8.6,1-16.4,8.24-19.19,16.47-1-4.62,0-10-1-14.46H535.38v26.91c4.2.4,9-.8,12.39,1V598.68c-2.8,2.61-8.19.81-12.39,1.41l.4,26.91,66.77-.4-.4-26.51-16.79-.6.4-40c6.79,7.43,14.79,12.05,25,11.05,11,.6,20-7.84,25.4-16.87C648.13,524.77,649.53,482.8,634.74,454.48ZM605,532c-.6,4.41-2,9.23-6.2,11.24a9.55,9.55,0,0,1-11.59-6.42c-2.41-17.48-1.4-37.16-1-55.43,1.39-4.22,2.6-9.65,7.79-11,4.6-.81,8.6,2.81,9.6,6.83C606.55,494.45,606.55,514.13,605,532Z" transform="translate(0 0)"/></g></svg>