<svg id="Layer_1" data-name="Layer 1" xmlns="http://www.w3.org/2000/svg" viewBox="0 0 960 645"><defs><style>.cls-1,.cls-4{fill:#0082c4;}.cls-1,.cls-2{fill-rule:evenodd;}.cls-2,.cls-3{fill:#2d2a26;}</style></defs><title>logo-thompsondisasterrecovery-color</title><g id="Thompson_Disaster_Recovery" data-name="Thompson Disaster Recovery"><path class="cls-1" d="M270.4,40.66c17.82,32.6,28,78.21,13,115.81-5.41,11.4-10.22,24.8-22.64,31.6-1-.6-1-1.6-1.4-2.4,10.22-37.8,11.62-85.21-10.61-118-13-20.4-32.25-42.2-54.28-52-44.47-24-110.57-20-151,9.2,32.64-17.8,79.31-25.4,115.36-10,10.42,5.4,23.64,8.6,29.45,21a3.62,3.62,0,0,1-3,1.4c-15.22-3-30.24-7.6-47.06-7.2a133.53,133.53,0,0,0-124.39,76C-10,154.07-2,221.07,30,262.48c-.4-2.2-1-4.6-2.8-5.8-13.42-23.2-21.63-48.61-21.63-77.21,1.8-27.2,8.61-52.8,29.84-71a5.46,5.46,0,0,1,1.8,2.4c-2.4,13.8-7,26.8-7.21,41.6-2.6,52.8,22.24,100.21,68.3,126.81,45.87,27.8,116.38,21.6,158.24-9.6-24.24,12.6-50.28,21-79.92,20.6-26-1.8-50.67-8.8-68.3-29.2,1-1.4,2.6-1.6,4-2,16.82,3.8,33.65,8.4,52.87,7.2,48.88,0,93.94-28.8,116.78-72.41C306.05,148.47,300.44,81.06,270.4,40.66ZM180.46,241.28c28.45,6.6,54.09-5,74.52-23.4a117.47,117.47,0,0,1-124,32.6c-33.05-8.6-55.88-42.21-70.7-70.61-1.2-.8-3.21-.2-4.81-.4-6.41,15.2-.8,32.6,4.41,46.4,5.2,10.61,11.22,20.61,19.63,29.81C46.07,224.27,30,178.07,44.46,132.87c8.62-27.21,33.46-54.61,60.7-64.81,3.8-4,10.61-4.2,12.41-10-5-7.4-14.42-4-22-4.8-20.63,1.8-37.86,11.6-53.48,25.4,31.25-32.8,77.32-47.6,121.58-33.6,23,6.4,44.67,24.8,57.69,46,5.61,8.4,10.21,17.41,16.42,25,3.61.6,4.81-4,5.81-6.8,1.2-25.41-8-46.61-23.64-65.21,33.45,31,47.27,82.41,29.85,126.21-10.62,29.4-40.86,52.6-68.3,64.41C180.46,236.68,178.26,239.28,180.46,241.28Z" transform="translate(0 0)"/><path class="cls-1" d="M244,163.07c-7.21,11.6-18.23,25.4-32.25,27.8a4,4,0,0,1-5.21-3.8c7-16.4,13.83-33,14.83-51.8,1-34-21.23-65.41-51.88-79.21,10.61,7.2,21.63,18.4,22.63,31.6-1,1.61-2.4,3.61-4.4,3.4-19.83-9.6-40.86-17.2-65.3-14.4-30.64,2.2-61.49,29.4-69.3,57.61,5.21-11.8,17.83-24.61,31.24-25.4,2.81.79,2.21,4.59,1.61,6.8-11.42,23-16.43,55.6-4.41,80,9.21,23.41,34.25,44,57.28,50-12-6.61-28.84-17-28.84-32.6,0-3,3-2.41,5.21-2.41,16.22,7.21,33.25,12.41,52.88,11.4C201.3,220.48,233.75,194.47,244,163.07Z" transform="translate(0 0)"/><path class="cls-2" d="M172.13,387c1,20.49,0,41.78,1,62.26,10.79-9.84,27.19-14.06,40.78-8.23,27,13.85,18.59,47.59,20.19,74.71v25.5l12,.41.4,26.51H196.12l-.4-93a10.86,10.86,0,0,0-6.2-7.63c-6.2-1-12.79,1-16.79,5.82v67.88l10.59.41.4,27.11H121.35V542.25c4.2-1,9-.41,13.4-.6V413.91h-7.2l-.4,39.57-26.39.6-.6-39.57-14.79-.6V541.65h14l.4,26.51-72,.6-.4-26.51c4.4-1,9.6-.41,14.39-.6V413.91h-15l-.4,40.17H0V387Z" transform="translate(0 0)"/><path class="cls-2" d="M459,456.89c12.59-12.45,29.59-22.49,47.18-14.06,13.19,6.83,17.59,21.49,19.19,35.35v63.06c4.2,1,8.8.41,13.4.41v27.11H488.4l-1-90.18c-1-3.81-3.2-7.83-7.2-9.64-6-1.2-11.79,1.21-15.79,6.23v66.07l10.59,1v25.91l-48,.6-.6-88.77c-1.4-4-2.2-9.24-7.19-11.05-6.2-1.4-11.8,2-16.2,6.23v66.07l10.6,1v26.51H353.05V541.65h12l.6-72.31-12-.4-.6-26.51h50c.2,4.42-.4,9,.4,13.06,9-12.25,22.59-18.08,37.39-14.46,7.59,1.8,14.39,9.24,18.19,15.86" transform="translate(0 0)"/><path class="cls-2" d="M696.11,450.06l.4-8H722.9c1,10.44.4,21.49.6,32.13l-27,.61c-1-5-2-10.85-7.6-13.06-3.39-1.4-7,.2-9.59,2.41-2.8,3.42-2.6,8.24-1,12.05,15.19,17.48,46.18,25.71,47.58,52.62,1.2,13.66-.6,27.32-11.6,36.55-7.39,6.43-19.39,6.23-28.78,3.82-3.8-1.41-6.8-5.42-9.6-8.64l-1,8.24H648.53V534.42h26.39c.6,5.42,2.2,11.24,7.79,13.65,3.21.81,7.2.6,9.6-2,2.6-2.82,3-7.64,1.4-11.05-11.59-15.67-32.39-20.89-42.18-39.16-6.6-11.05-6-28.12-1-40,3.6-8.44,12.4-14.66,21.19-15.87,10-1.41,18.19,3.42,24.39,10" transform="translate(0 0)"/><path class="cls-2" d="M942.21,456.49l4.4,13.46.4,71.3c3.79,1,8.39.4,12.59.4l.4,26.51H909.62l-.4-91.59c-1.4-2.8-3-6.42-6.4-7.63-6.39-1.4-12.19,1.61-16.79,6.23v66.07l10.6.41.59,26.51-62,.6-.4-26.51c4.2-1,8.8-.41,13.4-.6l.4-72.31c-4.2-.8-8.8-.2-13.4-.4l-.4-26.51H886c.2,4.42-.4,9,.6,13.06,7.8-12.86,22.79-17.68,37.39-14.46,7.39,2,14.59,8.43,18.19,15.46" transform="translate(0 0)"/><path class="cls-3" d="M335.86,454.88c-8-8.23-17-13.65-27.39-15.86-16.59-2-32.19,1.4-43.58,13.45-22.19,22.7-23.19,60.66-12,88.77,7.2,17.88,25.79,31.13,45,31.33,19.59.61,37.38-11.44,46.18-28.92C356.45,516.74,355.05,478.18,335.86,454.88Zm-24.59,72.31c-1.4,5.82-2.8,12.45-8.59,15.46a10.64,10.64,0,0,1-11-2.81c-8.8-14.46-5.8-34.55-5.8-52,1.8-7.63,2.6-17.87,11.6-20.28,3.6-1,6,1.2,8.59,2.81C315.07,486.41,313.27,508.51,311.27,527.19Z" transform="translate(0 0)"/><path class="cls-3" d="M827.65,471c-3.59-9.44-11.19-18.07-19.78-24.7-13.2-9-33.39-10.64-48-3.41-29.59,15.46-34.79,49.6-30.59,80.53,3,19.48,16.39,40.77,36.38,46.8a48.41,48.41,0,0,0,50.38-12.46C836.45,535,838.05,498.67,827.65,471ZM791.07,535c-1.6,3.21-4,7.63-8.2,8.23-4.59.61-9.19-1.4-11-5.82-6.2-19.68-6.8-45.79.6-65.07,1.8-2,4.2-4.62,7.2-4.82,5.19-.81,10,3.61,11.39,8.23C796.07,493.44,796.07,517.34,791.07,535Z" transform="translate(0 0)"/><path class="cls-3" d="M634.74,454.48c-6.4-11.24-17.6-15.06-29.79-14.46-8.6,1-16.4,8.24-19.19,16.47-1-4.62,0-10-1-14.46H535.38v26.91c4.2.4,9-.8,12.39,1V598.68c-2.8,2.61-8.19.81-12.39,1.41l.4,26.91,66.77-.4-.4-26.51-16.79-.6.4-40c6.79,7.43,14.79,12.05,25,11.05,11,.6,20-7.84,25.4-16.87C648.13,524.77,649.53,482.8,634.74,454.48ZM605,532c-.6,4.41-2,9.23-6.2,11.24a9.55,9.55,0,0,1-11.59-6.42c-2.41-17.48-1.4-37.16-1-55.43,1.39-4.22,2.6-9.65,7.79-11,4.6-.81,8.6,2.81,9.6,6.83C606.55,494.45,606.55,514.13,605,532Z" transform="translate(0 0)"/><path class="cls-4" d="M27,621.92h3.48V587.19H27v-7.41H43.9c10.08,0,17.17,9.17,17.17,24.84,0,14-5.49,24.71-17.17,24.71H27Zm15.09,0c4.59,0,6.67-2.4,6.67-17.58,0-15.74-2.78-17.15-6.67-17.15Z" transform="translate(0 0)"/><path class="cls-4" d="M65.22,621.92H68.9V602.15H65.22v-7.41H79.06v27.18h3.26v7.41H65.22ZM68.14,585a5.91,5.91,0,1,1,5.91,6A5.95,5.95,0,0,1,68.14,585Z" transform="translate(0 0)"/><path class="cls-4" d="M86,619.94h7.31c.2,2.54,1.18,3.74,2.92,3.74a2.17,2.17,0,0,0,2.22-2.4c0-4.94-12.93-6.49-12.93-17.43,0-5.79,3.2-9.67,7.92-9.67A6.73,6.73,0,0,1,98.82,597H99v-2.26h7.3v9H99c-.35-2.48-1.25-3.6-2.85-3.6a2.22,2.22,0,0,0-2.3,2.39c0,5.44,13.28,6.22,13.28,17.79,0,5.79-3.13,9.6-7.92,9.6-4,0-4.45-1.55-5.71-2.82h-.13v2.26H86Z" transform="translate(0 0)"/><path class="cls-4" d="M127.3,629.33v-2.68a9.36,9.36,0,0,1-7,3.17c-5.36,0-9.32-4.73-9.32-11.22s4.24-11.51,10.22-11.51a9.91,9.91,0,0,1,6.12,2.12v-3.67c0-3.74-.83-5.08-3.2-5.08-1.74,0-2.64.77-3.34,2.68l-9.1-1.91c2.5-4.79,7.37-7.48,13.69-7.48,5.64,0,12.1,2.19,12.1,10.45v17.72h3.2v7.41Zm0-14.12a3.51,3.51,0,0,0-2.92-1.62c-2,0-3.27,1.83-3.27,4.59s1.18,4.23,3.13,4.23c1.25,0,2.09-.49,3.06-2Z" transform="translate(0 0)"/><path class="cls-4" d="M144.33,619.94h7.3c.21,2.54,1.19,3.74,2.92,3.74a2.18,2.18,0,0,0,2.23-2.4c0-4.94-12.93-6.49-12.93-17.43,0-5.79,3.19-9.67,7.92-9.67a6.73,6.73,0,0,1,5.36,2.82h.14v-2.26h7.3v9h-7.3c-.35-2.48-1.26-3.6-2.86-3.6a2.22,2.22,0,0,0-2.29,2.39c0,5.44,13.28,6.22,13.28,17.79,0,5.79-3.13,9.6-7.93,9.6-4,0-4.45-1.55-5.7-2.82h-.14v2.26h-7.3Z" transform="translate(0 0)"/><path class="cls-4" d="M185.73,629.19a18.08,18.08,0,0,1-6.18,1.13c-6.05,0-8.07-4-8.07-9.89V602.15h-3.06v-7.41h3.06v-4.38l10.15-8v12.42h4.1v7.41h-4.1v15.46c0,3.11.7,4.24,2.57,4.24a3.74,3.74,0,0,0,1.53-.36Z" transform="translate(0 0)"/><path class="cls-4" d="M214.41,621.7a12.61,12.61,0,0,1-12.24,8.62c-8.48,0-12.86-6.36-12.86-18.71,0-14.33,6.95-17.86,13.14-17.86,5.35,0,12.45,3.6,12.45,16.59v3.25H199.39c0,8,.84,9.32,3.13,9.32,1.88,0,2.92-1.06,3.48-4.38Zm-9.66-13.26v-1.7c0-4.09-.77-5.93-2.65-5.93s-2.71,1.69-2.71,7.63Z" transform="translate(0 0)"/><path class="cls-4" d="M218.18,621.92h3.62V602.15h-3.62v-7.41H232v6.92h.14c1.39-5.65,3.75-7.7,7.51-7.48v11.57c-5.15,0-7.65,3.39-7.65,10.24v5.93h4v7.41h-17.8Z" transform="translate(0 0)"/><path class="cls-4" d="M266,621.92h3V587.19h-3v-7.41H284.1c9.67,0,14.61,6.84,14.61,14.54,0,4.59-1.4,7.34-4.8,9.95l3.75,17.65h2v7.41H289l-4.59-21.74h-3.82v14.33h3v7.41H266Zm14.61-21.46c4.52,0,6.53-1,6.53-7.06,0-5.86-2.29-6.56-6.53-6.56Z" transform="translate(0 0)"/><path class="cls-4" d="M328,621.7a12.59,12.59,0,0,1-12.24,8.62c-8.48,0-12.86-6.36-12.86-18.71,0-14.33,6.95-17.86,13.14-17.86,5.36,0,12.45,3.6,12.45,16.59v3.25H313c0,8,.84,9.32,3.13,9.32,1.88,0,2.92-1.06,3.48-4.38Zm-9.66-13.26v-1.7c0-4.09-.77-5.93-2.64-5.93S313,602.5,313,608.44Z" transform="translate(0 0)"/><path class="cls-4" d="M358.1,618.6c-1.32,7.84-5.36,11.72-12.31,11.72-8.34,0-13.42-7-13.42-18.64,0-10.52,4.59-17.5,11.27-17.5,3.47,0,5.28,1.41,6.46,4.3h.14v-3.74h7.3v14h-7.3c-.35-5.16-1.53-7.34-4-7.34s-3.34,2.47-3.34,10.3c0,8.9.83,11.23,3.75,11.23,2.23,0,3.13-2,3.55-7.27Z" transform="translate(0 0)"/><path class="cls-4" d="M376.23,593.75c8.42,0,14.33,7.56,14.33,18.28s-5.91,18.29-14.33,18.29-14.39-7.56-14.39-18.29S367.75,593.75,376.23,593.75Zm0,28.66c2.58,0,3.76-3.18,3.76-10.38s-1.18-10.37-3.76-10.37-3.82,3.18-3.82,10.37S373.59,622.41,376.23,622.41Z" transform="translate(0 0)"/><path class="cls-4" d="M395.45,602.15h-2.64v-7.41h14v7.41h-1.94l3.68,15.6h.14l3.27-15.6h-1.81v-7.41h12.17v7.41h-2.64l-7.37,27.67h-8.49Z" transform="translate(0 0)"/><path class="cls-4" d="M449.9,621.7a12.59,12.59,0,0,1-12.23,8.62c-8.49,0-12.87-6.36-12.87-18.71,0-14.33,7-17.86,13.14-17.86,5.36,0,12.45,3.6,12.45,16.59v3.25H434.88c0,8,.84,9.32,3.13,9.32,1.88,0,2.92-1.06,3.48-4.38Zm-9.66-13.26v-1.7c0-4.09-.77-5.93-2.64-5.93s-2.72,1.69-2.72,7.63Z" transform="translate(0 0)"/><path class="cls-4" d="M453.67,621.92h3.62V602.15h-3.62v-7.41h13.77v6.92h.14c1.39-5.65,3.75-7.7,7.51-7.48v11.57c-5.15,0-7.65,3.39-7.65,10.24v5.93h4v7.41h-17.8Z" transform="translate(0 0)"/><path class="cls-4" d="M483.71,637.59h4.79l1.46-6.36-10-29.08h-2.43v-7.41h13.9v7.41h-2.29l4.59,13.49h.14l3.2-13.49h-2.23v-7.41H507v7.41h-2.71L493.79,645H483.71Z" transform="translate(0 0)"/></g></svg>