<svg id="Layer_1" data-name="Layer 1" xmlns="http://www.w3.org/2000/svg" viewBox="0 0 960 651"><defs><style>.cls-1,.cls-4{fill:#0082c4;}.cls-1,.cls-2{fill-rule:evenodd;}.cls-2,.cls-3{fill:#2d2a26;}</style></defs><title>logo-thompsonmaintenance-color</title><g id="Thompson_Maintenance" data-name="Thompson Maintenance"><path class="cls-1" d="M270.4,40.66c17.82,32.6,28,78.21,13,115.81-5.41,11.4-10.22,24.8-22.64,31.6-1-.6-1-1.6-1.4-2.4,10.22-37.8,11.62-85.21-10.61-118-13-20.4-32.25-42.2-54.28-52-44.47-24-110.57-20-151,9.2,32.64-17.8,79.31-25.4,115.36-10,10.42,5.4,23.64,8.6,29.45,21a3.62,3.62,0,0,1-3,1.4c-15.22-3-30.24-7.6-47.06-7.2a133.53,133.53,0,0,0-124.39,76C-10,154.07-2,221.07,30,262.48c-.4-2.2-1-4.6-2.8-5.8-13.42-23.2-21.63-48.61-21.63-77.21,1.8-27.2,8.61-52.8,29.84-71a5.46,5.46,0,0,1,1.8,2.4c-2.4,13.8-7,26.8-7.21,41.6-2.6,52.8,22.24,100.21,68.3,126.81,45.87,27.8,116.38,21.6,158.24-9.6-24.24,12.6-50.28,21-79.92,20.6-26-1.8-50.67-8.8-68.3-29.2,1-1.4,2.6-1.6,4-2,16.82,3.8,33.65,8.4,52.87,7.2,48.88,0,93.94-28.8,116.78-72.41C306.05,148.47,300.44,81.06,270.4,40.66ZM180.46,241.28c28.45,6.6,54.09-5,74.52-23.4a117.47,117.47,0,0,1-124,32.6c-33.05-8.6-55.88-42.21-70.7-70.61-1.2-.8-3.21-.2-4.81-.4-6.41,15.2-.8,32.6,4.41,46.4,5.2,10.61,11.22,20.61,19.63,29.81C46.07,224.27,30,178.07,44.46,132.87c8.62-27.21,33.46-54.61,60.7-64.81,3.8-4,10.61-4.2,12.41-10-5-7.4-14.42-4-22-4.8-20.63,1.8-37.86,11.6-53.48,25.4,31.25-32.8,77.32-47.6,121.58-33.6,23,6.4,44.67,24.8,57.69,46,5.61,8.4,10.21,17.41,16.42,25,3.61.6,4.81-4,5.81-6.8,1.2-25.41-8-46.61-23.64-65.21,33.45,31,47.27,82.41,29.85,126.21-10.62,29.4-40.86,52.6-68.3,64.41C180.46,236.68,178.26,239.28,180.46,241.28Z" transform="translate(0 0)"/><path class="cls-1" d="M244,163.07c-7.21,11.6-18.23,25.4-32.25,27.8a4,4,0,0,1-5.21-3.8c7-16.4,13.83-33,14.83-51.8,1-34-21.23-65.41-51.88-79.21,10.61,7.2,21.63,18.4,22.63,31.6-1,1.61-2.4,3.61-4.4,3.4-19.83-9.6-40.86-17.2-65.3-14.4-30.64,2.2-61.49,29.4-69.3,57.61,5.21-11.8,17.83-24.61,31.24-25.4,2.81.79,2.21,4.59,1.61,6.8-11.42,23-16.43,55.6-4.41,80,9.21,23.41,34.25,44,57.28,50-12-6.61-28.84-17-28.84-32.6,0-3,3-2.41,5.21-2.41,16.22,7.21,33.25,12.41,52.88,11.4C201.3,220.48,233.75,194.47,244,163.07Z" transform="translate(0 0)"/><path class="cls-2" d="M172.13,387c1,20.49,0,41.78,1,62.26,10.79-9.84,27.19-14.06,40.78-8.23,27,13.85,18.59,47.59,20.19,74.71v25.5l12,.41.4,26.51H196.12l-.4-93a10.86,10.86,0,0,0-6.2-7.63c-6.2-1-12.79,1-16.79,5.82v67.88l10.59.41.4,27.11H121.35V542.25c4.2-1,9-.41,13.4-.6V413.91h-7.2l-.4,39.57-26.39.6-.6-39.57-14.79-.6V541.65h14l.4,26.51-72,.6-.4-26.51c4.4-1,9.6-.41,14.39-.6V413.91h-15l-.4,40.17H0V387Z" transform="translate(0 0)"/><path class="cls-2" d="M459,456.89c12.59-12.45,29.59-22.49,47.18-14.06,13.19,6.83,17.59,21.49,19.19,35.35v63.06c4.2,1,8.8.41,13.4.41v27.11H488.4l-1-90.18c-1-3.81-3.2-7.83-7.2-9.64-6-1.2-11.79,1.21-15.79,6.23v66.07l10.59,1v25.91l-48,.6-.6-88.77c-1.4-4-2.2-9.24-7.19-11.05-6.2-1.4-11.8,2-16.2,6.23v66.07l10.6,1v26.51H353.05V541.65h12l.6-72.31-12-.4-.6-26.51h50c.2,4.42-.4,9,.4,13.06,9-12.25,22.59-18.08,37.39-14.46,7.59,1.8,14.39,9.24,18.19,15.86" transform="translate(0 0)"/><path class="cls-2" d="M696.11,450.06l.4-8H722.9c1,10.44.4,21.49.6,32.13l-27,.61c-1-5-2-10.85-7.6-13.06-3.39-1.4-7,.2-9.59,2.41-2.8,3.42-2.6,8.24-1,12.05,15.19,17.48,46.18,25.71,47.58,52.62,1.2,13.66-.6,27.32-11.6,36.55-7.39,6.43-19.39,6.23-28.78,3.82-3.8-1.41-6.8-5.42-9.6-8.64l-1,8.24H648.53V534.42h26.39c.6,5.42,2.2,11.24,7.79,13.65,3.21.81,7.2.6,9.6-2,2.6-2.82,3-7.64,1.4-11.05-11.59-15.67-32.39-20.89-42.18-39.16-6.6-11.05-6-28.12-1-40,3.6-8.44,12.4-14.66,21.19-15.87,10-1.41,18.19,3.42,24.39,10" transform="translate(0 0)"/><path class="cls-2" d="M942.21,456.49l4.4,13.46.4,71.3c3.79,1,8.39.4,12.59.4l.4,26.51H909.62l-.4-91.59c-1.4-2.8-3-6.42-6.4-7.63-6.39-1.4-12.19,1.61-16.79,6.23v66.07l10.6.41.59,26.51-62,.6-.4-26.51c4.2-1,8.8-.41,13.4-.6l.4-72.31c-4.2-.8-8.8-.2-13.4-.4l-.4-26.51H886c.2,4.42-.4,9,.6,13.06,7.8-12.86,22.79-17.68,37.39-14.46,7.39,2,14.59,8.43,18.19,15.46" transform="translate(0 0)"/><path class="cls-3" d="M335.86,454.88c-8-8.23-17-13.65-27.39-15.86-16.59-2-32.19,1.4-43.58,13.45-22.19,22.7-23.19,60.66-12,88.77,7.2,17.88,25.79,31.13,45,31.33,19.59.61,37.38-11.44,46.18-28.92C356.45,516.74,355.05,478.18,335.86,454.88Zm-24.59,72.31c-1.4,5.82-2.8,12.45-8.59,15.46a10.64,10.64,0,0,1-11-2.81c-8.8-14.46-5.8-34.55-5.8-52,1.8-7.63,2.6-17.87,11.6-20.28,3.6-1,6,1.2,8.59,2.81C315.07,486.41,313.27,508.51,311.27,527.19Z" transform="translate(0 0)"/><path class="cls-3" d="M827.65,471c-3.59-9.44-11.19-18.07-19.78-24.7-13.2-9-33.39-10.64-48-3.41-29.59,15.46-34.79,49.6-30.59,80.53,3,19.48,16.39,40.77,36.38,46.8a48.41,48.41,0,0,0,50.38-12.46C836.45,535,838.05,498.67,827.65,471ZM791.07,535c-1.6,3.21-4,7.63-8.2,8.23-4.59.61-9.19-1.4-11-5.82-6.2-19.68-6.8-45.79.6-65.07,1.8-2,4.2-4.62,7.2-4.82,5.19-.81,10,3.61,11.39,8.23C796.07,493.44,796.07,517.34,791.07,535Z" transform="translate(0 0)"/><path class="cls-3" d="M634.74,454.48c-6.4-11.24-17.6-15.06-29.79-14.46-8.6,1-16.4,8.24-19.19,16.47-1-4.62,0-10-1-14.46H535.38v26.91c4.2.4,9-.8,12.39,1V598.68c-2.8,2.61-8.19.81-12.39,1.41l.4,26.91,66.77-.4-.4-26.51-16.79-.6.4-40c6.79,7.43,14.79,12.05,25,11.05,11,.6,20-7.84,25.4-16.87C648.13,524.77,649.53,482.8,634.74,454.48ZM605,532c-.6,4.41-2,9.23-6.2,11.24a9.55,9.55,0,0,1-11.59-6.42c-2.41-17.48-1.4-37.16-1-55.43,1.39-4.22,2.6-9.65,7.79-11,4.6-.81,8.6,2.81,9.6,6.83C606.55,494.45,606.55,514.13,605,532Z" transform="translate(0 0)"/><path class="cls-4" d="M27,639.21h4.78V590.49H27v-10.4H54.2l4.29,27.33h1.19L64,580.09H93.16v10.4H88.58v48.72h4.58v10.4H68.25v-10.4h3.69V589.4h-1.1L59.68,649.61H54.2L42.84,589.4H41.55v49.81h3.69v10.4H27Z" transform="translate(0 0)"/><path class="cls-4" d="M120.13,649.61v-3.76c-3.18,3.17-6.37,4.46-10.06,4.46-7.67,0-13.35-6.64-13.35-15.75s6.08-16.14,14.64-16.14c3.19,0,5.48.79,8.77,3v-5.15c0-5.25-1.19-7.13-4.58-7.13-2.49,0-3.79,1.09-4.78,3.76L97.71,610.2c3.59-6.74,10.57-10.5,19.63-10.5,8.07,0,17.34,3.07,17.34,14.66v24.85h4.59v10.4Zm0-19.8c-1.39-1.69-2.59-2.28-4.18-2.28-2.89,0-4.68,2.57-4.68,6.44s1.69,5.94,4.48,5.94c1.79,0,3-.7,4.38-2.77Z" transform="translate(0 0)"/><path class="cls-4" d="M142,639.21h5.28V611.48H142v-10.4h19.82v38.13h4.69v10.4H142Zm4.18-51.79a8.47,8.47,0,1,1,8.47,8.42A8.44,8.44,0,0,1,146.2,587.42Z" transform="translate(0 0)"/><path class="cls-4" d="M168.94,639.21h5.38V611.48h-5.38v-10.4h19.93v5.15h.4a11.44,11.44,0,0,1,10.56-5.94c7.08,0,12.56,5.35,12.56,15.65v23.27h4.88v10.4H197.84V618.32c0-5.15-1-6.93-4.09-6.93-1.69,0-2.39.39-4.88,2.27v25.55h4.19v10.4H168.94Z" transform="translate(0 0)"/><path class="cls-4" d="M242.36,649.42a26.48,26.48,0,0,1-8.87,1.58c-8.67,0-11.56-5.65-11.56-13.86V611.48h-4.38v-10.4h4.38v-6.14l14.55-11.28v17.42h5.88v10.4h-5.88v21.69c0,4.36,1,6,3.69,6a5.44,5.44,0,0,0,2.19-.5Z" transform="translate(0 0)"/><path class="cls-4" d="M281.09,638.92A18,18,0,0,1,263.55,651c-12.16,0-18.44-8.91-18.44-26.24,0-20.11,10-25.06,18.84-25.06,7.67,0,17.83,5,17.83,23.27v4.56H259.56c0,11.19,1.2,13.07,4.49,13.07,2.69,0,4.18-1.48,5-6.14ZM267.24,620.3v-2.38c0-5.74-1.1-8.32-3.79-8.32s-3.89,2.38-3.89,10.7Z" transform="translate(0 0)"/><path class="cls-4" d="M284,639.21h5.38V611.48H284v-10.4H303.9v5.15h.39c.8-1.58,3.79-5.94,10.57-5.94,7.07,0,12.55,5.35,12.55,15.65v23.27h4.88v10.4H312.86V618.32c0-5.15-1-6.93-4.08-6.93-1.7,0-2.39.39-4.88,2.27v25.55h4.18v10.4H284Z" transform="translate(0 0)"/><path class="cls-4" d="M358.45,649.61v-3.76c-3.19,3.17-6.38,4.46-10.06,4.46-7.68,0-13.36-6.64-13.36-15.75s6.08-16.14,14.65-16.14c3.19,0,5.48.79,8.77,3v-5.15c0-5.25-1.2-7.13-4.58-7.13-2.5,0-3.79,1.09-4.79,3.76L336,610.2c3.59-6.74,10.56-10.5,19.63-10.5,8.07,0,17.34,3.07,17.34,14.66v24.85h4.58v10.4Zm0-19.8c-1.4-1.69-2.59-2.28-4.19-2.28-2.89,0-4.68,2.57-4.68,6.44s1.69,5.94,4.49,5.94c1.79,0,3-.7,4.38-2.77Z" transform="translate(0 0)"/><path class="cls-4" d="M380.09,639.21h5.38V611.48h-5.38v-10.4H400v5.15h.4A11.44,11.44,0,0,1,411,600.29c7.08,0,12.56,5.35,12.56,15.65v23.27h4.88v10.4H409V618.32c0-5.15-1-6.93-4.08-6.93-1.7,0-2.4.39-4.89,2.27v25.55h4.19v10.4H380.09Z" transform="translate(0 0)"/><path class="cls-4" d="M466.94,634.56c-1.89,11-7.67,16.44-17.63,16.44-12,0-19.24-9.8-19.24-26.15,0-14.75,6.58-24.56,16.15-24.56,5,0,7.57,2,9.26,6h.2v-5.25h10.46v19.61H455.68c-.5-7.23-2.19-10.29-5.68-10.29s-4.78,3.46-4.78,14.45c0,12.48,1.2,15.75,5.38,15.75,3.19,0,4.49-2.87,5.08-10.2Z" transform="translate(0 0)"/><path class="cls-4" d="M506.3,638.92A18,18,0,0,1,488.77,651c-12.16,0-18.44-8.91-18.44-26.24,0-20.11,10-25.06,18.83-25.06,7.68,0,17.84,5,17.84,23.27v4.56H484.78c0,11.19,1.2,13.07,4.48,13.07,2.69,0,4.19-1.48,5-6.14ZM492.45,620.3v-2.38c0-5.74-1.09-8.32-3.78-8.32s-3.89,2.38-3.89,10.7Z" transform="translate(0 0)"/></g></svg>