<?xml version="1.0" encoding="utf-8"?>
<!-- Generator: Adobe Illustrator 22.1.0, SVG Export Plug-In . SVG Version: 6.00 Build 0)  -->
<svg version="1.1" id="Layer_1" xmlns="http://www.w3.org/2000/svg" xmlns:xlink="http://www.w3.org/1999/xlink" x="0px" y="0px"
	 viewBox="0 0 960 651" style="enable-background:new 0 0 960 651;" xml:space="preserve">
<style type="text/css">
	.st0{fill-rule:evenodd;clip-rule:evenodd;fill:#0082C4;}
	.st1{fill:#0082C4;}
	.st2{fill-rule:evenodd;clip-rule:evenodd;fill:#2D2A26;}
	.st3{fill:#2D2A26;}
</style>
<g id="Thompson_Construction">
	<g>
		<path class="st0" d="M270.4,40.7c17.8,32.6,28,78.2,13,115.8c-5.4,11.4-10.2,24.8-22.6,31.6c-1-0.6-1-1.6-1.4-2.4
			c10.2-37.8,11.6-85.2-10.6-118c-13-20.4-32.2-42.2-54.3-52c-44.5-24-110.6-20-151,9.2c32.6-17.8,79.3-25.4,115.4-10
			c10.4,5.4,23.6,8.6,29.4,21c-0.8,1-1.8,1.4-3,1.4c-15.2-3-30.2-7.6-47.1-7.2c-52.7-1.6-101.6,28.2-124.4,76
			C-10,154.1-2,221.1,30,262.5c-0.4-2.2-1-4.6-2.8-5.8c-13.4-23.2-21.6-48.6-21.6-77.2c1.8-27.2,8.6-52.8,29.8-71
			c0.6,0.6,1.6,1.4,1.8,2.4c-2.4,13.8-7,26.8-7.2,41.6c-2.6,52.8,22.2,100.2,68.3,126.8c45.9,27.8,116.4,21.6,158.2-9.6
			c-24.2,12.6-50.3,21-79.9,20.6c-26-1.8-50.7-8.8-68.3-29.2c1-1.4,2.6-1.6,4-2c16.8,3.8,33.7,8.4,52.9,7.2
			c48.9,0,93.9-28.8,116.8-72.4C306.1,148.5,300.4,81.1,270.4,40.7z M180.5,241.3c28.4,6.6,54.1-5,74.5-23.4
			c-31,34.2-79.7,47.4-124,32.6c-33.1-8.6-55.9-42.2-70.7-70.6c-1.2-0.8-3.2-0.2-4.8-0.4c-6.4,15.2-0.8,32.6,4.4,46.4
			c5.2,10.6,11.2,20.6,19.6,29.8C46.1,224.3,30,178.1,44.5,132.9c8.6-27.2,33.5-54.6,60.7-64.8c3.8-4,10.6-4.2,12.4-10
			c-5-7.4-14.4-4-22-4.8c-20.6,1.8-37.9,11.6-53.5,25.4c31.2-32.8,77.3-47.6,121.6-33.6c23,6.4,44.7,24.8,57.7,46
			c5.6,8.4,10.2,17.4,16.4,25c3.6,0.6,4.8-4,5.8-6.8c1.2-25.4-8-46.6-23.6-65.2c33.4,31,47.3,82.4,29.8,126.2
			c-10.6,29.4-40.9,52.6-68.3,64.4C180.5,236.7,178.3,239.3,180.5,241.3z"/>
		<path class="st0" d="M244,163.1c-7.2,11.6-18.2,25.4-32.2,27.8c-2.8,0.6-5-1-5.2-3.8c7-16.4,13.8-33,14.8-51.8
			c1-34-21.2-65.4-51.9-79.2c10.6,7.2,21.6,18.4,22.6,31.6c-1,1.6-2.4,3.6-4.4,3.4c-19.8-9.6-40.9-17.2-65.3-14.4
			c-30.6,2.2-61.5,29.4-69.3,57.6c5.2-11.8,17.8-24.6,31.2-25.4c2.8,0.8,2.2,4.6,1.6,6.8c-11.4,23-16.4,55.6-4.4,80
			c9.2,23.4,34.2,44,57.3,50c-12-6.6-28.8-17-28.8-32.6c0-3,3-2.4,5.2-2.4c16.2,7.2,33.2,12.4,52.9,11.4
			C201.3,220.5,233.7,194.5,244,163.1z"/>
	</g>
	<g>
		<g>
			<g>
				<path class="st1" d="M52.7,639c-5,0-5.8-4.8-5.8-25.3c0-18.5,0.6-23.1,5-23.1c3.7,0,5.7,4.3,6.3,12.9h11.3v-23.5H58.3v4.8h-0.2
					c-3.1-4.2-6.1-5.8-10-5.8c-10,0-19.5,11.2-19.5,34.9c0,26.1,11.2,36.8,23.1,36.8c10.9,0,18.6-8.5,20-21.9l-12.9-3.8
					C58.1,635.1,56.4,639,52.7,639z M95.5,599.7c-12.3,0-20.8,10.6-20.8,25.6c0,15.1,8.5,25.7,20.8,25.7c12.2,0,20.7-10.6,20.7-25.7
					C116.2,610.3,107.6,599.7,95.5,599.7z M95.5,639.9c-3.8,0-5.5-4.5-5.5-14.6c0-10.1,1.7-14.6,5.5-14.6c3.7,0,5.4,4.5,5.4,14.6
					C100.9,635.4,99.2,639.9,95.5,639.9z M163.1,615.9c0-10.3-5.5-15.7-12.7-15.7c-6.8,0-9.9,4.4-10.7,5.9h-0.4v-5.2h-20.1v10.4h5.4
					v27.7h-5.4v10.4h24.3v-10.4h-4.2v-25.5c2.5-1.9,3.2-2.3,4.9-2.3c3.1,0,4.1,1.8,4.1,6.9v31.3H168v-10.4h-4.9V615.9z M181.9,612
					c0-2,1.3-3.4,3.3-3.4c2.3,0,3.6,1.6,4.1,5.1h10.6v-12.6h-10.6v3.2h-0.2c-1.2-1.5-3.6-4-7.7-4c-6.8,0-11.5,5.5-11.5,13.6
					c0,15.4,18.7,17.5,18.7,24.5c0,2-1.2,3.4-3.2,3.4c-2.5,0-3.9-1.7-4.2-5.2h-10.6v13.2h10.6v-3.2h0.2c1.8,1.8,2.5,4,8.2,4
					c6.9,0,11.5-5.3,11.5-13.5C201.1,620.7,181.9,619.6,181.9,612z M222.4,583.7l-14.7,11.3v6.1h-4.4v10.4h4.4v25.7
					c0,8.2,2.9,13.9,11.7,13.9c3,0,5.7-0.5,8.9-1.6v-10.8c-0.7,0.3-1.4,0.5-2.2,0.5c-2.7,0-3.7-1.6-3.7-5.9v-21.7h5.9v-10.4h-5.9
					V583.7z M251.4,610.8h-0.2v-9.7h-19.9v10.4h5.2v27.7h-5.2v10.4H257v-10.4h-5.8v-8.3c0-9.6,3.6-14.4,11.1-14.4v-16.2
					C256.8,600,253.4,602.9,251.4,610.8z M311.1,601.1h-18.9v10.4h4.2V637c-2.5,1.9-3.2,2.3-4.9,2.3c-3.1,0-4.1-1.8-4.1-6.9v-31.3
					h-19.6v10.4h4.9v23.3c0,10.3,5.5,15.6,12.7,15.6c3.9,0,7-1.4,11.1-4.7v3.9h20.1v-10.4h-5.4V601.1z M339.6,640.6
					c-4.2,0-5.4-3.3-5.4-15.7c0-11,1.2-14.5,4.8-14.5c3.5,0,5.2,3.1,5.7,10.3h10.6v-19.6h-10.6v5.2h-0.2c-1.7-4.1-4.3-6-9.4-6
					c-9.7,0-16.3,9.8-16.3,24.6c0,16.3,7.3,26.1,19.4,26.1c10,0,15.9-5.4,17.8-16.4l-11.4-4.2C344.1,637.7,342.8,640.6,339.6,640.6z
					 M378,583.7l-14.7,11.3v6.1h-4.4v10.4h4.4v25.7c0,8.2,2.9,13.9,11.7,13.9c3,0,5.7-0.5,8.9-1.6v-10.8c-0.7,0.3-1.4,0.5-2.2,0.5
					c-2.7,0-3.7-1.6-3.7-5.9v-21.7h5.9v-10.4H378V583.7z M407.4,601.1h-20v10.4h5.3v27.7h-5.3v10.4h24.7v-10.4h-4.7V601.1z
					 M400.1,595.8c4.7,0,8.5-3.8,8.5-8.4c0-4.7-3.8-8.4-8.5-8.4c-4.7,0-8.5,3.8-8.5,8.4C391.6,592.1,395.4,595.8,400.1,595.8z
					 M435.9,599.7c-12.3,0-20.8,10.6-20.8,25.6c0,15.1,8.5,25.7,20.8,25.7c12.2,0,20.7-10.6,20.7-25.7
					C456.6,610.3,448.1,599.7,435.9,599.7z M435.9,639.9c-3.8,0-5.5-4.5-5.5-14.6c0-10.1,1.7-14.6,5.5-14.6c3.7,0,5.4,4.5,5.4,14.6
					C441.4,635.4,439.6,639.9,435.9,639.9z M503.6,639.2v-23.3c0-10.3-5.5-15.7-12.7-15.7c-6.8,0-9.9,4.4-10.7,5.9h-0.4v-5.2h-20.1
					v10.4h5.4v27.7h-5.4v10.4h24.3v-10.4h-4.2v-25.5c2.5-1.9,3.2-2.3,4.9-2.3c3.1,0,4.1,1.8,4.1,6.9v31.3h19.6v-10.4H503.6z"/>
			</g>
		</g>
		<g>
			<path class="st2" d="M172.1,387c1,20.5,0,41.8,1,62.3c10.8-9.8,27.2-14.1,40.8-8.2c27,13.9,18.6,47.6,20.2,74.7l0,25.5l12,0.4
				l0.4,26.5l-50.4,0l-0.4-93c-0.6-3.2-3.2-6.4-6.2-7.6c-6.2-1-12.8,1-16.8,5.8l0,67.9l10.6,0.4l0.4,27.1l-62.4,0l0-26.5
				c4.2-1,9-0.4,13.4-0.6l0-127.7h-7.2l-0.4,39.6l-26.4,0.6l-0.6-39.6l-14.8-0.6l0,127.7l14,0l0.4,26.5l-72,0.6l-0.4-26.5
				c4.4-1,9.6-0.4,14.4-0.6l0-127.7l-15,0l-0.4,40.2l-26.4,0L0,387L172.1,387z"/>
			<path class="st2" d="M459,456.9c12.6-12.5,29.6-22.5,47.2-14.1c13.2,6.8,17.6,21.5,19.2,35.3l0,63.1c4.2,1,8.8,0.4,13.4,0.4
				l0,27.1l-50.4,0l-1-90.2c-1-3.8-3.2-7.8-7.2-9.6c-6-1.2-11.8,1.2-15.8,6.2l0,66.1l10.6,1l0,25.9l-48,0.6l-0.6-88.8
				c-1.4-4-2.2-9.2-7.2-11c-6.2-1.4-11.8,2-16.2,6.2l0,66.1l10.6,1l0,26.5l-60.6,0l0-27.1l12,0l0.6-72.3l-12-0.4l-0.6-26.5l50,0
				c0.2,4.4-0.4,9,0.4,13.1c9-12.3,22.6-18.1,37.4-14.5C448.4,442.8,455.2,450.3,459,456.9"/>
			<path class="st2" d="M696.1,450.1l0.4-8l26.4,0c1,10.4,0.4,21.5,0.6,32.1l-27,0.6c-1-5-2-10.8-7.6-13.1c-3.4-1.4-7,0.2-9.6,2.4
				c-2.8,3.4-2.6,8.2-1,12c15.2,17.5,46.2,25.7,47.6,52.6c1.2,13.7-0.6,27.3-11.6,36.6c-7.4,6.4-19.4,6.2-28.8,3.8
				c-3.8-1.4-6.8-5.4-9.6-8.6l-1,8.2l-26.4,0l0-34.3l26.4,0c0.6,5.4,2.2,11.2,7.8,13.7c3.2,0.8,7.2,0.6,9.6-2c2.6-2.8,3-7.6,1.4-11
				c-11.6-15.7-32.4-20.9-42.2-39.2c-6.6-11-6-28.1-1-40c3.6-8.4,12.4-14.7,21.2-15.9C681.7,438.6,689.9,443.4,696.1,450.1"/>
			<path class="st2" d="M942.2,456.5l4.4,13.5l0.4,71.3c3.8,1,8.4,0.4,12.6,0.4l0.4,26.5l-50.4,0l-0.4-91.6c-1.4-2.8-3-6.4-6.4-7.6
				c-6.4-1.4-12.2,1.6-16.8,6.2l0,66.1l10.6,0.4l0.6,26.5l-62,0.6l-0.4-26.5c4.2-1,8.8-0.4,13.4-0.6l0.4-72.3
				c-4.2-0.8-8.8-0.2-13.4-0.4l-0.4-26.5l51.2,0c0.2,4.4-0.4,9,0.6,13.1c7.8-12.9,22.8-17.7,37.4-14.5
				C931.4,443,938.6,449.5,942.2,456.5"/>
			<g>
				<path class="st3" d="M335.9,454.9c-8-8.2-17-13.7-27.4-15.9c-16.6-2-32.2,1.4-43.6,13.5c-22.2,22.7-23.2,60.7-12,88.8
					c7.2,17.9,25.8,31.1,45,31.3c19.6,0.6,37.4-11.4,46.2-28.9C356.5,516.7,355.1,478.2,335.9,454.9z M311.3,527.2
					c-1.4,5.8-2.8,12.5-8.6,15.5c-4,1.2-8.2,0.2-11-2.8c-8.8-14.5-5.8-34.5-5.8-52c1.8-7.6,2.6-17.9,11.6-20.3c3.6-1,6,1.2,8.6,2.8
					C315.1,486.4,313.3,508.5,311.3,527.2z"/>
			</g>
			<g>
				<path class="st3" d="M827.7,471c-3.6-9.4-11.2-18.1-19.8-24.7c-13.2-9-33.4-10.6-48-3.4c-29.6,15.5-34.8,49.6-30.6,80.5
					c3,19.5,16.4,40.8,36.4,46.8c18,6,37.4,1,50.4-12.5C836.4,535,838.1,498.7,827.7,471z M791.1,535c-1.6,3.2-4,7.6-8.2,8.2
					c-4.6,0.6-9.2-1.4-11-5.8c-6.2-19.7-6.8-45.8,0.6-65.1c1.8-2,4.2-4.6,7.2-4.8c5.2-0.8,10,3.6,11.4,8.2
					C796.1,493.4,796.1,517.3,791.1,535z"/>
			</g>
			<g>
				<path class="st3" d="M634.7,454.5c-6.4-11.2-17.6-15.1-29.8-14.5c-8.6,1-16.4,8.2-19.2,16.5c-1-4.6,0-10-1-14.5l-49.4,0l0,26.9
					c4.2,0.4,9-0.8,12.4,1l0,128.7c-2.8,2.6-8.2,0.8-12.4,1.4l0.4,26.9l66.8-0.4l-0.4-26.5l-16.8-0.6l0.4-40c6.8,7.4,14.8,12,25,11
					c11,0.6,20-7.8,25.4-16.9C648.1,524.8,649.5,482.8,634.7,454.5z M604.9,532c-0.6,4.4-2,9.2-6.2,11.2c-5.4,1.4-10-1.8-11.6-6.4
					c-2.4-17.5-1.4-37.2-1-55.4c1.4-4.2,2.6-9.6,7.8-11c4.6-0.8,8.6,2.8,9.6,6.8C606.5,494.5,606.5,514.1,604.9,532z"/>
			</g>
		</g>
	</g>
</g>
</svg>
