<svg id="Layer_1" data-name="Layer 1" xmlns="http://www.w3.org/2000/svg" viewBox="0 0 960 423"><defs><style>.cls-1{fill:#fff;}</style></defs><title>logo-thompsonturner-white</title><g id="Thompson_Turner" data-name="Thompson Turner"><path class="cls-1" d="M23.84,415.51c-3.08,0-3.57-3-3.57-15.79,0-11.57.37-14.42,3.08-14.42,2.27,0,3.51,2.66,3.88,8.05h6.89V378.68H27.23v3H27.1C25.19,379.05,23.35,378,21,378,14.85,378,9,385,9,399.79c0,16.34,6.83,23,14.16,23,6.65,0,11.39-5.32,12.25-13.68l-7.88-2.35C27.1,413,26.12,415.51,23.84,415.51ZM50,390.93c-7.51,0-12.75,6.63-12.75,16S42.5,423,50,423s12.68-6.62,12.68-16S57.46,390.93,50,390.93Zm0,25.14c-2.34,0-3.39-2.79-3.39-9.11s1.05-9.09,3.39-9.09,3.32,2.78,3.32,9.09S52.28,416.07,50,416.07Zm41.44-15c0-6.44-3.39-9.79-7.76-9.79A7.06,7.06,0,0,0,77.16,395h-.25V391.8H64.6v6.5h3.32v17.33H64.6v6.5H79.5v-6.5H76.91v-16c1.54-1.17,2-1.42,3-1.42,1.91,0,2.52,1.11,2.52,4.33v19.56h12v-6.5h-3ZM103,398.61a2,2,0,0,1,2-2.1c1.42,0,2.22,1,2.52,3.15H114V391.8h-6.47v2h-.12a5.94,5.94,0,0,0-4.74-2.48c-4.19,0-7,3.41-7,8.49,0,9.59,11.45,10.95,11.45,15.29a1.91,1.91,0,0,1-2,2.1c-1.54,0-2.4-1.05-2.58-3.28H96.06v8.23h6.47v-2h.12c1.11,1.12,1.54,2.48,5,2.48,4.25,0,7-3.34,7-8.42C114.72,404.06,103,403.38,103,398.61Zm24.81-17.7-9,7v3.84h-2.71v6.5h2.71v16c0,5.13,1.79,8.66,7.14,8.66a16,16,0,0,0,5.48-1v-6.75a3.26,3.26,0,0,1-1.35.31c-1.66,0-2.28-1-2.28-3.71V398.3h3.63v-6.5h-3.63Zm17.73,17h-.12V391.8H133.19v6.5h3.2v17.33h-3.2v6.5H149v-6.5h-3.57v-5.19c0-6,2.21-9,6.77-9V391.3C148.83,391.12,146.73,392.92,145.5,397.87Zm36.57-6.07H170.5v6.5h2.59v16c-1.55,1.18-2,1.43-3,1.43-1.91,0-2.53-1.12-2.53-4.34V391.8h-12v6.5h3v14.55c0,6.44,3.39,9.78,7.76,9.78,2.4,0,4.31-.87,6.78-2.91v2.41H185.4v-6.5h-3.33Zm17.49,24.7c-2.59,0-3.33-2-3.33-9.84,0-6.87.74-9,3-9s3.2,1.92,3.51,6.44h6.47V391.8H202.7v3.28h-.12c-1.05-2.53-2.65-3.78-5.73-3.78-5.91,0-10,6.13-10,15.36,0,10.21,4.49,16.34,11.88,16.34,6.16,0,9.72-3.4,10.9-10.28l-7-2.6C202.33,414.71,201.53,416.5,199.56,416.5Zm23.52-35.59-9,7v3.84h-2.71v6.5h2.71v16c0,5.13,1.79,8.66,7.15,8.66a16,16,0,0,0,5.47-1v-6.75a3.26,3.26,0,0,1-1.35.31c-1.66,0-2.28-1-2.28-3.71V398.3h3.63v-6.5h-3.63Zm13.55,7.61a5.26,5.26,0,1,0-5.24-5.26A5.24,5.24,0,0,0,236.63,388.52Zm4.43,3.28H228.81v6.5h3.26v17.33h-3.26v6.5H244v-6.5h-2.89Zm17.48-.87c-7.51,0-12.74,6.63-12.74,16s5.23,16,12.74,16,12.69-6.62,12.69-16S266,390.93,258.54,390.93Zm0,25.14c-2.34,0-3.38-2.79-3.38-9.11s1-9.09,3.38-9.09,3.33,2.78,3.33,9.09S260.82,416.07,258.54,416.07Zm41.44-.44V401.09c0-6.44-3.38-9.79-7.75-9.79A7,7,0,0,0,285.7,395h-.24V391.8H273.14v6.5h3.32v17.33h-3.32v6.5H288v-6.5h-2.57v-16c1.53-1.17,2-1.42,3-1.42,1.91,0,2.53,1.11,2.53,4.33v19.56h12v-6.5Z" transform="translate(0 0)"/><path class="cls-1" d="M137.65,319.42c0-16.29-7.59-25.27-19.87-25.27-5.75,0-9.7,1.68-16.06,6.7V264H0v39.44H15.92V280h8.94V354.9H16.22v16h42.6v-16H50.18V280h8.94v23.45H75V280h4.54V354.9H71.4v16h36.84v-16h-6.52V314.4c3.18-2.28,5.15-3.2,7.58-3.2,4.54,0,6.21,2.9,6.21,10.21v49.48h29.56v-16h-7.42Zm38.19-25.27c-18.49,0-31.38,16.29-31.38,39.44S157.35,373,175.84,373s31.23-16.29,31.23-39.43S194.19,294.15,175.84,294.15Zm0,61.82c-5.76,0-8.33-6.85-8.33-22.38s2.57-22.39,8.33-22.39c5.61,0,8.19,6.85,8.19,22.39S181.45,356,175.84,356Zm140.83,14.92v-16h-7.88V321.56c0-18.58-8.94-26.5-19.4-26.5-6.52,0-11.83,2.75-19.71,10.05-3.94-6.85-8.95-10.05-16.07-10.05-8.79,0-12.88,5.33-16.22,9.14h-.46v-7.92H207.37v16h7.43V354.9h-7.43v16h35.78v-16h-6.22v-39c2.43-2.59,4.55-3.81,7.43-3.81,4.55,0,6.37,3.35,6.37,12v46.74h28.35v-16h-6.22v-39c2.73-2.75,4.7-3.81,7.28-3.81,4.7,0,6.52,3.5,6.52,12v46.74Zm40.93-75.83a13.67,13.67,0,0,0-13.49,9.75h-.3v-8.53H314.4v16h7.27V389H314.4v16H354V389H343.81v-23.9c4.55,5,8.49,7,13.95,7,13.64,0,21.37-13.7,21.37-38.83C379.13,308.61,371.55,295.06,357.6,295.06ZM350,356.13c-4.54,0-6.21-4-6.21-13.86V326.13c0-8.84,2-13.25,6.06-13.25,4.7,0,6.21,5.17,6.21,20.25C356.08,351.55,355.17,356.13,350,356.13ZM397.77,313a4.82,4.82,0,0,1,5-5.17c3.48,0,5.45,2.43,6.21,7.76h15.92V296.28H409v4.87h-.31A14.64,14.64,0,0,0,397,295.06c-10.31,0-17.29,8.38-17.29,20.87,0,23.6,28.2,26.95,28.2,37.6,0,3.05-1.82,5.18-4.85,5.18-3.79,0-5.92-2.58-6.37-8.07H380.79v20.25h15.92V366H397c2.72,2.74,3.78,6.09,12.43,6.09,10.45,0,17.27-8.22,17.27-20.71C426.72,326.43,397.77,324.76,397.77,313Zm60.94-18.88c-18.49,0-31.38,16.29-31.38,39.44S440.22,373,458.71,373s31.23-16.29,31.23-39.43S477.05,294.15,458.71,294.15Zm0,61.82c-5.76,0-8.34-6.85-8.34-22.38s2.58-22.39,8.34-22.39,8.19,6.85,8.19,22.39S464.32,356,458.71,356Zm97.62-36.85c0-15.83-8.33-24.06-19.1-24.06-10.31,0-14.85,6.7-16.07,9.14h-.6v-7.92H490.24v16h8.19V354.9h-8.19v16h36.68v-16h-6.36V315.62c3.79-2.89,4.85-3.5,7.43-3.5,4.69,0,6.21,2.74,6.21,10.66v48.11h29.56v-16h-7.43Zm14.12-15.68h15.91V280h8.94V354.9h-8.64v16h42.6v-16h-8.64V280h9v23.45h15.91V264h-75ZM712,296.28h-28.5v16h6.37v39.28c-3.79,2.9-4.85,3.51-7.43,3.51-4.7,0-6.22-2.74-6.22-10.66V296.28H646.69v16h7.43v35.78c0,15.84,8.34,24.06,19.1,24.06,5.91,0,10.61-2.13,16.68-7.16v5.94h30.32v-16H712ZM753,311.2h-.31V296.28h-30v16h7.88V354.9h-7.88v16h38.81v-16h-8.8V342.11c0-14.76,5.46-22.07,16.68-22.07v-25C761.14,294.61,756,299,753,311.2Zm89.71,7.92c0-15.83-8.34-24.06-19.1-24.06-10.31,0-14.86,6.7-16.07,9.14h-.61v-7.92H776.58v16h8.19V354.9h-8.19v16h36.68v-16h-6.37V315.62c3.79-2.89,4.86-3.5,7.43-3.5,4.7,0,6.22,2.74,6.22,10.66v48.11H850.1v-16h-7.43Zm39.72-25c-13.5,0-28.66,7.61-28.66,38.52,0,26.65,9.55,40.35,28,40.35,12.43,0,22.28-6.85,26.68-18.57l-18.34-6.86c-1.22,7.16-3.49,9.45-7.58,9.45-5,0-6.82-2.9-6.82-20.1h33.8v-7C909.52,301.92,894.06,294.15,882.39,294.15Zm5,31.67H875.72c0-12.79,1.81-16.44,5.91-16.44s5.76,4,5.76,12.79ZM960,320v-25c-8.19-.45-13.34,4-16.37,16.14h-.31V296.28h-30v16h7.88V354.9h-7.88v16h38.81v-16h-8.8V342.11C943.32,327.35,948.78,320,960,320Z" transform="translate(0 0)"/><path class="cls-1" d="M460.29,157.72c-1.24-1.26-1.85-1.9-3.08-3.16-.62-.64-1.24-1.27-.61-1.88,1.28-1.86,3.77-.57,5-.56,21.18,5.91,42.44,5.58,62-4.75A86.33,86.33,0,0,0,539.36,137c22.15-19,30.67-47.6,26.7-76.35a101.69,101.69,0,0,0-9-27.57c-1.78-3.21-3.89-6.43-5.85-9.65,14.27,25.34,18.69,57.83-.18,83.17-1.26,1.23-1.89,1.85-3.17,3.08a3.82,3.82,0,0,1-2.5.59,2.22,2.22,0,0,0-.61-1.26c4.66-19.9,7.42-38.57-.45-57.39-1.22-2.51-2.42-5.65-3.64-8.16a90,90,0,0,0-11-15.75C514.26,8.76,490.61,1,467.49,0a104.78,104.78,0,0,0-13.77,1.06,102.46,102.46,0,0,0-27.64,9c-2.59,1.43-5.18,3.07-7.77,4.68,23.9-13.16,54.26-16,79-.57,2.49,1.28,3.71,3.17,5.56,5.07a3.71,3.71,0,0,1,.59,2.5,2.2,2.2,0,0,0-1.26.61c-19.31-5.26-38.67-6.78-57.52.45a92.8,92.8,0,0,0-24,14,117.79,117.79,0,0,0-14,16c-7,10.51-10.31,21.7-12.35,33.52-4.71,24.26,3.09,47.45,16.57,67.59-16.53-25.18-21.67-60.18-1.92-86.73l3.17-3.07c.64-.62,1.27-1.23,1.88-.6,1.86,1.27.58,3.75.56,5-5.25,18-5.51,36.1,1.13,53.66,3.63,8.79,7.89,17,14,23.9,7.39,8.21,16.05,15.19,26,19.7A103.91,103.91,0,0,0,479.46,173a78,78,0,0,0,26.88-.25,102.36,102.36,0,0,0,27.64-9c3.22-1.78,6.45-3.88,9.68-5.84C518.26,172.13,485.7,176.53,460.29,157.72Zm-8.48-20.08c-11.75-8.9-16.6-20.19-23.93-32.14l-1.88,0a4.79,4.79,0,0,0-1.29,3.1c-2.14,18.68,8.88,35.68,21.84,47.71-19.19-14-30.76-35.36-31.07-58.44.09-6.24,1.42-12.46,2.76-18.68,5.24-16.77,16.67-29.71,31.8-38.23,4.38-.56,6.3-3.66,10.07-4.85.63-.61.64-1.24,1.28-1.85l-1.85-1.9c-19.33-4-37,8.22-49.08,21.77,2.55-3.08,5.1-6.79,8.27-9.86,13.94-13.53,31.57-22,50.31-21.14a89.25,89.25,0,0,1,18.1,2.13,153.66,153.66,0,0,1,14.92,6.44c14.26,8.93,21.57,22.13,30.13,36h1.26a10,10,0,0,0,1.95-5.58c.24-17.47-9.54-33.82-22.51-44.61,3.09,2.54,6.8,5.09,9.89,8.25,18.5,18.35,25.65,43.4,19.05,68.26-5.92,21.13-22.37,35.24-41.87,43.7-.63.62-.65,1.24-1.28,1.86,0,.62.6,1.88,1.23,1.89,19.32,4,37-7.6,49.06-21.15-5.1,6.79-10.19,12.95-17.13,17.85a72.51,72.51,0,0,1-30.81,12C483.5,152.43,466,148.44,451.81,137.64Z" transform="translate(0 0)"/><path class="cls-1" d="M527.21,111.24a42.88,42.88,0,0,0,9.62-17.33c-3.86,7.43-9.58,14.21-17.76,17.84l-3.74,0c-.63,0-1.24-1.27-1.23-1.89,5.18-13,11-26,8.07-40.43A57,57,0,0,0,516.74,55c-6.1-10.69-16-18.32-27.18-23.46,7.44,4.47,14.86,10.19,16,19.56,0,2.49-3.16,2.45-4.4,1.81C481.28,42,456.92,40.4,439.19,56.37a55,55,0,0,0-12.09,14.8l-3.87,9.31a30.74,30.74,0,0,1,16.48-16.62c1.25,0,3.14-.57,3.74.68,0,1.25,0,1.87,0,3.12-4.53,11.17-8.43,21.72-6.1,34.22a96.58,96.58,0,0,0,4.17,14.41c6.69,13.82,19.67,24,34.62,28.55-8.07-4.48-18.62-10.24-18.48-20.22,0-1.87,3.15-1.2,5-.55,9.32,4.49,19.91,7.14,30.55,6a66.76,66.76,0,0,0,21.36-7.19C519.59,119.87,523.4,115.55,527.21,111.24Z" transform="translate(0 0)"/></g></svg>