<svg id="Layer_1" data-name="Layer 1" xmlns="http://www.w3.org/2000/svg" viewBox="0 0 960 627"><defs><style>.cls-1{fill:#fff;}</style></defs><title>logo-thompsonindustrialservices-white</title><g id="Thompson_Industrial_Services" data-name="Thompson Industrial Services"><path class="cls-1" d="M27.62,541.73H42.34V414.21H27.1v39.92H0V387H127.78v67.13H100.67V414.21H85.44V541.73h14.72v27.21H27.62Z" transform="translate(0 0)"/><path class="cls-1" d="M121.58,541.73h13.94V414.21H121.58V387h51.63v62.72c10.84-8.55,17.55-11.4,27.36-11.4,20.91,0,33.82,15.29,33.82,43v60.39H247v27.21H196.7V484.71c0-12.44-2.84-17.36-10.58-17.36-4.14,0-7.49,1.55-12.91,5.44v68.94h11.1v27.21H121.58Z" transform="translate(0 0)"/><path class="cls-1" d="M285.24,505.44c0-26.43,4.39-38.09,14.2-38.09,9.55,0,13.94,11.66,13.94,38.09s-4.39,38.11-13.94,38.11C289.63,543.55,285.24,531.88,285.24,505.44Zm-39.24,0c0,39.4,21.94,67.13,53.44,67.13,31.23,0,53.17-27.73,53.17-67.13s-21.94-67.12-53.17-67.12C267.94,438.32,246,466.05,246,505.44Z" transform="translate(0 0)"/><path class="cls-1" d="M353.13,541.73h12.65V469.16H353.13V442h50.33v13.47h.78c5.68-6.47,12.65-15.55,27.62-15.55,12.13,0,20.65,5.45,27.36,17.11,13.43-12.44,22.46-17.11,33.56-17.11,17.81,0,33,13.48,33,45.1v56.76h13.42v27.21H488.13V489.37c0-14.51-3.1-20.47-11.1-20.47-4.38,0-7.74,1.81-12.39,6.48v66.35h10.59v27.21H427V489.37c0-14.76-3.1-20.47-10.85-20.47-4.9,0-8.52,2.08-12.65,6.48v66.35h10.59v27.21H353.13Z" transform="translate(0 0)"/><path class="cls-1" d="M585.45,520.22V492.74c0-15,3.35-22.54,10.33-22.54,8,0,10.58,8.81,10.58,34.47,0,31.36-1.55,39.13-10.33,39.13C588.29,543.8,585.45,537.06,585.45,520.22ZM535.37,627h67.38V599.78h-17.3V559.1C593.19,567.65,599.9,571,609.2,571c23.23,0,36.4-23.33,36.4-66.09,0-42-12.91-65.06-36.66-65.06-9.55,0-19.1,4.93-23,16.59h-.52V442H535.37v27.21h12.39V599.78H535.37Z" transform="translate(0 0)"/><path class="cls-1" d="M648.43,534.47h27.1c.78,9.33,4.4,13.74,10.85,13.74,5.16,0,8.26-3.63,8.26-8.81,0-18.14-48-23.85-48-64,0-21.25,11.88-35.51,29.43-35.51,10.59,0,16.78,6.48,19.88,10.37h.51V442h27.11v32.91H696.44c-1.29-9.07-4.64-13.21-10.58-13.21-5.16,0-8.51,3.63-8.51,8.81,0,20,49.3,22.8,49.3,65.3C726.65,557,715,571,697.22,571c-14.72,0-16.52-5.71-21.17-10.37h-.52v8.29h-27.1Z" transform="translate(0 0)"/><path class="cls-1" d="M766.91,505.44c0-26.43,4.39-38.09,14.2-38.09,9.55,0,13.94,11.66,13.94,38.09s-4.39,38.11-13.94,38.11C771.3,543.55,766.91,531.88,766.91,505.44Zm-39.23,0c0,39.4,21.94,67.13,53.43,67.13,31.24,0,53.18-27.73,53.18-67.13s-21.94-67.12-53.18-67.12C749.62,438.32,727.68,466.05,727.68,505.44Z" transform="translate(0 0)"/><path class="cls-1" d="M834.8,541.73h13.94V469.16H834.8V442h51.63v13.47h1c2.07-4.15,9.81-15.55,27.36-15.55,18.33,0,32.53,14,32.53,41v60.9H960v27.21H909.66V487c0-13.48-2.58-18.14-10.58-18.14-4.39,0-6.2,1-12.65,6v66.87h10.84v27.21H834.8Z" transform="translate(0 0)"/><path class="cls-1" d="M27,619.14h4.67V586.66H27v-6.94H48.07v6.94H43.13v32.48h4.94v6.93H27Z" transform="translate(0 0)"/><path class="cls-1" d="M49.51,619.14h3.71V600.65H49.51v-6.93H63.23v3.44h.28a7.9,7.9,0,0,1,7.27-4c4.87,0,8.65,3.57,8.65,10.44v15.51h3.36v6.93H69.41V605.21c0-3.43-.69-4.62-2.81-4.62-1.17,0-1.65.27-3.37,1.52v17h2.89v6.93H49.51Z" transform="translate(0 0)"/><path class="cls-1" d="M100.56,614.19c0,3.44-.61,5.41-2.81,5.41-2.4,0-2.88-2.24-2.88-9.7,0-6.47.48-9,2.95-9,2.06,0,2.74,1.71,2.74,6.68Zm13.32,11.88v-6.93h-3.3V579.72H97.34v6.94h3.22v10h-.13a6.89,6.89,0,0,0-6.32-3.44c-4.8,0-9.67,4-9.67,15.85,0,11.29,3.5,17.5,9.74,17.5a8,8,0,0,0,6.38-3v2.57Z" transform="translate(0 0)"/><path class="cls-1" d="M144,619.14h3.71v6.93H134V623.5c-2.74,2.18-4.87,3.1-7.55,3.1-4.87,0-8.64-3.57-8.64-10.42V600.65h-3.37v-6.93h13.39v20.87c0,3.43.68,4.62,2.81,4.62,1.17,0,1.65-.27,3.36-1.52v-17H131.1v-6.93H144Z" transform="translate(0 0)"/><path class="cls-1" d="M149.36,617.3h7.2c.21,2.37,1.17,3.49,2.88,3.49a2.08,2.08,0,0,0,2.2-2.24c0-4.63-12.76-6.08-12.76-16.31,0-5.42,3.15-9,7.82-9a6.68,6.68,0,0,1,5.28,2.65h.14v-2.12h7.2v8.39h-7.2c-.34-2.32-1.24-3.36-2.81-3.36A2.13,2.13,0,0,0,157,601c0,5.08,13.11,5.81,13.11,16.64,0,5.4-3.09,9-7.82,9-3.92,0-4.4-1.45-5.63-2.64h-.14v2.11h-7.2Z" transform="translate(0 0)"/><path class="cls-1" d="M188.74,625.94a18.45,18.45,0,0,1-6.1,1.06c-6,0-8-3.76-8-9.25v-17.1h-3v-6.93h3v-4.09l10-7.53v11.62h4v6.93h-4v14.47c0,2.9.68,4,2.53,4a4,4,0,0,0,1.51-.33Z" transform="translate(0 0)"/><path class="cls-1" d="M190.73,619.14h3.57V600.65h-3.57v-6.93h13.59v6.48h.14c1.37-5.29,3.7-7.2,7.41-7V604c-5.08,0-7.55,3.17-7.55,9.57v5.55h4v6.93H190.73Z" transform="translate(0 0)"/><path class="cls-1" d="M214.47,619.14h3.64V600.65h-3.64v-6.93h13.66v25.42h3.22v6.93H214.47Zm2.88-34.54a5.84,5.84,0,1,1,5.84,5.62A5.72,5.72,0,0,1,217.35,584.6Z" transform="translate(0 0)"/><path class="cls-1" d="M249.88,617.75c-1,1.39-1.79,1.85-3,1.85-1.92,0-3.09-1.44-3.09-4s1.24-4.3,3.23-4.3a3.53,3.53,0,0,1,2.88,1.52Zm13.18,8.32v-6.93H259.9V602.57c0-7.73-6.38-9.77-11.94-9.77-6.25,0-11.05,2.51-13.52,7l9,1.79c.69-1.79,1.58-2.51,3.29-2.51,2.34,0,3.16,1.25,3.16,4.76v3.43a10.06,10.06,0,0,0-6-2c-5.9,0-10.09,4.62-10.09,10.76s3.91,10.5,9.2,10.5a9.46,9.46,0,0,0,6.93-3v2.51Z" transform="translate(0 0)"/><path class="cls-1" d="M263.67,619.14h3.78V586.66h-3.78v-6.94h13.8v39.42h3.29v6.93H263.67Z" transform="translate(0 0)"/><path class="cls-1" d="M303.61,611h7.21c-.21,5.75,1.3,8.45,4.25,8.45,2.4,0,3.64-1.84,3.64-4.62,0-8.18-15.51-11.75-15.51-24.43,0-6.47,4.12-11.09,9.95-11.09,3.77,0,5.35,1.32,7.55,3.3v-2.91h7.2v14h-7.2c.14-5.54-1.44-7.46-4.12-7.46-1.92,0-3.16,1.32-3.16,3.43a6.9,6.9,0,0,0,2.41,5.09c1.71,1.65,3.84,3.1,6.59,5.74,4.8,4.62,6.65,8.52,6.65,13.48,0,7.19-4.6,12.48-10.84,12.48-3,0-5-1-7.41-3.31v2.9h-7.21Z" transform="translate(0 0)"/><path class="cls-1" d="M341.42,606.53c0-5.54.82-7.13,2.68-7.13s2.61,1.72,2.61,5.55v1.58Zm6.52,9.44c-.55,3.11-1.58,4.09-3.43,4.09-2.27,0-3.09-1.25-3.09-8.71h15.31v-3c0-12.14-7-15.51-12.29-15.51-6.11,0-13,3.3-13,16.7,0,11.55,4.32,17.5,12.7,17.5a12.39,12.39,0,0,0,12.07-8.06Z" transform="translate(0 0)"/><path class="cls-1" d="M358.44,619.14H362V600.65h-3.57v-6.93H372v6.48h.13c1.38-5.29,3.71-7.2,7.42-7V604c-5.08,0-7.55,3.17-7.55,9.57v5.55h4v6.93H358.44Z" transform="translate(0 0)"/><path class="cls-1" d="M384.51,600.65H381.9v-6.93h13.8v6.93h-1.92l3.63,14.59h.14l3.23-14.59H399v-6.93h12v6.93h-2.61l-7.27,25.89h-8.37Z" transform="translate(0 0)"/><path class="cls-1" d="M411.69,619.14h3.63V600.65h-3.63v-6.93h13.65v25.42h3.23v6.93H411.69Zm2.88-34.54a5.83,5.83,0,1,1,5.83,5.62A5.72,5.72,0,0,1,414.57,584.6Z" transform="translate(0 0)"/><path class="cls-1" d="M456.08,616c-1.3,7.33-5.28,11-12.14,11-8.24,0-13.25-6.54-13.25-17.43,0-9.84,4.53-16.38,11.12-16.38,3.43,0,5.22,1.32,6.38,4h.14v-3.5h7.21V606.8h-7.21c-.34-4.82-1.51-6.87-3.91-6.87s-3.3,2.31-3.3,9.64c0,8.32.83,10.49,3.71,10.49,2.2,0,3.09-1.9,3.5-6.79Z" transform="translate(0 0)"/><path class="cls-1" d="M468.65,606.53c0-5.54.82-7.13,2.66-7.13s2.61,1.72,2.61,5.55v1.58Zm6.51,9.44c-.54,3.11-1.58,4.09-3.43,4.09-2.26,0-3.08-1.25-3.08-8.71H484v-3c0-12.14-7-15.51-12.29-15.51-6.11,0-13,3.3-13,16.7,0,11.55,4.33,17.5,12.7,17.5a12.4,12.4,0,0,0,12.07-8.06Z" transform="translate(0 0)"/><path class="cls-1" d="M486.21,617.3h7.21c.2,2.37,1.16,3.49,2.88,3.49a2.08,2.08,0,0,0,2.19-2.24c0-4.63-12.77-6.08-12.77-16.31,0-5.42,3.16-9,7.83-9a6.68,6.68,0,0,1,5.28,2.65H499v-2.12h7.21v8.39H499c-.34-2.32-1.23-3.36-2.81-3.36A2.13,2.13,0,0,0,493.9,601c0,5.08,13.1,5.81,13.1,16.64,0,5.4-3.08,9-7.82,9-3.91,0-4.39-1.45-5.63-2.64h-.13v2.11h-7.21Z" transform="translate(0 0)"/><path class="cls-1" d="M114.85,269.21l-5.26-5.4c-1-1.08-2.1-2.15-1-3.2,2.17-3.17,6.42-1,8.55-.95,36.14,10.09,72.44,9.53,105.77-8.11,9.67-5.19,18.28-10.4,26.93-17.73,37.8-32.48,52.36-81.26,45.57-130.33A173.66,173.66,0,0,0,280,56.43c-3-5.49-6.65-11-10-16.48,24.35,43.26,31.89,98.71-.3,142l-5.41,5.26c-1.08,1-3.22,1-4.28,1a3.75,3.75,0,0,0-1-2.15c8-34,12.66-65.83-.77-98-2.07-4.29-4.13-9.64-6.21-13.93a153.09,153.09,0,0,0-18.83-26.88C207,15,166.61,1.61,127.14,0a175.77,175.77,0,0,0-23.5,1.8A174.57,174.57,0,0,0,56.47,17.12c-4.43,2.45-8.85,5.24-13.27,8C84,2.64,135.82-2.14,178,24.14c4.24,2.18,6.33,5.41,9.49,8.64,1,1.08,1,3.21,1,4.28a3.69,3.69,0,0,0-2.15,1c-33-9-66-11.56-98.19.77A158.1,158.1,0,0,0,47.3,62.78,200.8,200.8,0,0,0,23.44,90.13c-12,17.93-17.6,37-21.08,57.2-8,41.42,5.27,81,28.27,115.39-28.22-43-37-102.73-3.27-148l5.42-5.26c1.08-1,2.15-2.09,3.2-1,3.18,2.17,1,6.4,1,8.53-9,30.75-9.39,61.62,1.93,91.59,6.2,15,13.47,28.93,24,40.8,12.61,14,27.38,25.93,44.35,33.62a177,177,0,0,0,40.38,12.27c16,2.34,29.85,2.54,45.89-.43a174.55,174.55,0,0,0,47.18-15.32c5.5-3,11-6.63,16.52-10C213.8,293.81,158.22,301.33,114.85,269.21Zm-14.46-34.27c-20.07-15.19-28.33-34.46-40.86-54.87l-3.2,0a8.07,8.07,0,0,0-2.2,5.29c-3.66,31.89,15.15,60.9,37.28,81.43-32.76-23.88-52.52-60.35-53-99.75.15-10.64,2.43-21.26,4.71-31.88C52,106.5,71.54,84.41,97.35,69.86c7.49-1,10.77-6.24,17.19-8.27,1.09-1.05,1.11-2.12,2.19-3.17l-3.16-3.24c-33-6.85-63.16,14-83.76,37.17,4.34-5.26,8.7-11.59,14.11-16.84C67.72,52.42,97.8,37.93,129.8,39.44a151.85,151.85,0,0,1,30.89,3.62,260.3,260.3,0,0,1,25.47,11c24.32,15.25,36.82,37.78,51.43,61.4l2.14,0a17,17,0,0,0,3.32-9.53c.43-29.81-16.26-57.72-38.41-76.13,5.27,4.33,11.61,8.68,16.87,14.08C253.09,75.22,265.31,118,254,160.41c-10.11,36.06-38.19,60.16-71.48,74.6-1.08,1.05-1.09,2.12-2.18,3.17,0,1.06,1,3.21,2.09,3.22,33,6.85,63.16-13,83.75-36.1-8.7,11.59-17.38,22.12-29.24,30.47-17.23,11.47-33.33,17.64-52.58,20.56C154.47,260.18,124.67,253.37,100.39,234.94Z" transform="translate(0 0)"/><path class="cls-1" d="M229.09,189.88a73.36,73.36,0,0,0,16.41-29.59c-6.58,12.69-16.34,24.27-30.31,30.46l-6.39-.09c-1.08,0-2.11-2.16-2.09-3.22,8.84-22.24,18.76-44.46,13.76-69a97.17,97.17,0,0,0-9.26-24.62c-10.41-18.24-27.31-31.25-46.4-40,12.71,7.62,25.38,17.38,27.29,33.38-.07,4.26-5.4,4.18-7.52,3.09-33.89-18.57-75.47-21.28-105.73,6a93.76,93.76,0,0,0-20.64,25.27q-3.32,8-6.62,15.88c5.51-12.7,15.26-23.21,28.14-28.36,2.14,0,5.36-1,6.39,1.16,0,2.13,0,3.19-.08,5.32-7.73,19.06-14.39,37.07-10.42,58.42,2,8.55,4,17.09,7.13,24.58,11.41,23.59,33.58,40.93,59.09,48.73-13.77-7.64-31.78-17.48-31.54-34.5,0-3.19,5.37-2.06,8.55-.95,15.91,7.67,34,12.19,52.15,10.31a113.88,113.88,0,0,0,36.46-12.27C216.08,204.6,222.58,197.24,229.09,189.88Z" transform="translate(0 0)"/></g></svg>