<svg id="Layer_1" data-name="Layer 1" xmlns="http://www.w3.org/2000/svg" viewBox="0 0 640 430"><defs><style>.cls-1{fill:#004e76;}.cls-2,.cls-3{fill:#005b89;}.cls-3{fill-rule:evenodd;}</style></defs><title>background-companies-bottom-normal</title><rect class="cls-1" width="640" height="430"/><path class="cls-2" d="M244,227.93C141,201.13,60.84,118.45,0,28.31V226.56q9.63,12.18,20.37,23.95Q9.91,240.7,0,230.45v48.94A616.69,616.69,0,0,0,102.15,353C253.5,444.78,466.6,451.25,640,389.65v-16.8c-62.1,18.5-127.57,28.9-197.69,28C329.21,393,222.21,362.59,145.65,274c4.35-6.08,11.31-6.94,17.4-8.69,73.08,16.52,146.16,36.5,229.67,31.28,87,0,171.31-21.05,247.28-58.93V196.15C520.1,258.56,377.42,272.55,244,227.93Z"/><path class="cls-2" d="M458.84,188c64.16,14.88,125,8.44,181.16-12.38V47.13c-53.74,48-116.82,86.37-176.81,112.17C458.84,168,449.28,179.29,458.84,188Z"/><path class="cls-3" d="M277.89,207.08C225.69,178.4,152.6,133.24,152.6,65.48c0-13,13.05-10.44,22.63-10.44,70.47,31.29,144.41,53.88,229.67,49.52C489.42,100.5,572.74,60.13,636.21,0H33.31C76.34,97.43,181.17,181.89,277.89,207.08Z"/></svg>