<svg id="Layer_1" data-name="Layer 1" xmlns="http://www.w3.org/2000/svg" viewBox="0 0 640 430"><defs><style>.cls-1{fill:#005b89;}.cls-2{fill:#00689d;}</style></defs><title>background-companies-right-hover</title><rect class="cls-1" width="640" height="429.99"/><path class="cls-2" d="M380.58,0H317.75C376.32,133.73,398,284.27,373.83,430h65.11C450.74,282.14,436.54,130.16,380.58,0Z"/><path class="cls-2" d="M598.37,0H572.12c33.53,141.09,39.15,292-2,430h61.9C649.69,287.45,637.73,137.11,598.37,0Z"/><path class="cls-2" d="M257,218.68c23.31,3.91,31.06-26.06,37.55-44.29C297.43,112.63,291,54.68,276.44,0H113q20.34,27.23,37.77,55.8C187.06,110.52,216.82,169.16,257,218.68Z"/><path class="cls-2" d="M150.81,343.79C154.49,217.7,109.49,97.1,33.52,0H0V430H140.07A627.57,627.57,0,0,0,150.81,343.79Z"/></svg>