<svg id="Layer_1" data-name="Layer 1" xmlns="http://www.w3.org/2000/svg" viewBox="0 0 641.02 430"><defs><style>.cls-1{fill:#004e76;}.cls-2{fill:#005b89;fill-rule:evenodd;}</style></defs><title>background-companies-middle-normal</title><rect class="cls-1" x="1.02" width="640" height="430"/><path class="cls-2" d="M.51,307.45V250.07A404,404,0,0,0,.51,307.45Z" transform="translate(0.51)"/><path class="cls-2" d="M595.07,399c-12.18,2.6-21.75-4.35-22.63-16.51,30.45-71.23,60-143.34,64.39-225C638.46,102.31,626,48.66,602.74,0H3.4L.51,2.77V53.72A114.8,114.8,0,0,1,41.77,42.86c12.18,3.46,9.56,20,7,29.53A484,484,0,0,0,.51,250.07v57.38c2.89,39.48,12.05,77.86,29.08,112.44,1.33,3.38,2.75,6.75,4.23,10.11h602.9c1.27-1.2,2.54-2.41,3.79-3.63V381.52C626.32,390.08,611.15,396.29,595.07,399Z" transform="translate(0.51)"/></svg>