<svg id="Layer_1" data-name="Layer 1" xmlns="http://www.w3.org/2000/svg" viewBox="0 0 640 430"><defs><style>.cls-1{fill:#004e76;}.cls-2{fill:#005b89;}</style></defs><title>background-companies-left-normal</title><rect class="cls-1" width="640" height="429.99"/><path class="cls-2" d="M287.44,328.15C325.37,207.42,412,86.1,519,0H182.51A873.4,873.4,0,0,0,89.32,153.53c-41.86,85-68.52,179.06-81,276.47H68.67c28.22-99.08,77.18-188.84,160.52-260.84,3.86,3.92,10.34,9.13,11.63,15.65-14.12,81.79-40,159.26-45.58,245.19h67.7A737.88,737.88,0,0,1,287.44,328.15Z"/><path class="cls-2" d="M640,3C500,68.29,380.58,201,343.12,337.28c33.68-76.89,115.25-160.3,202-165.5,18.13,5.2,14.23,30,10.36,44.31C524.4,279.19,500.67,353.38,489.41,430H640Z"/></svg>